NotoSerifDisplay-Italic.ufo
<glyph name="comma" format="2">
  <advance width="251"/>
  <unicode hex="002C"/>
  <outline>
    <contour>
      <point x="-22" y="-146" type="line"/>
      <point x="105" y="-117"/>
      <point x="159" y="-45"/>
      <point x="159" y="46" type="curve" smooth="yes"/>
      <point x="159" y="98"/>
      <point x="123" y="128"/>
      <point x="81" y="128" type="curve" smooth="yes"/>
      <point x="47" y="128"/>
      <point x="19" y="108"/>
      <point x="19" y="69" type="curve" smooth="yes"/>
      <point x="19" y="16"/>
      <point x="84" y="25"/>
      <point x="84" y="-37" type="curve" smooth="yes"/>
      <point x="84" y="-87"/>
      <point x="52" y="-116"/>
      <point x="-21" y="-136" type="curve"/>
    </contour>
  </outline>
</glyph>
<glyph name="Q" format="2">
  <advance width="741"/>
  <unicode hex="0051"/>
  <anchor x="275" y="-226" name="bottom"/>
  <anchor x="388" y="357" name="center"/>
  <anchor x="475" y="714" name="top"/>
  <anchor x="826" y="714" name="topright"/>
  <outline>
    <contour>
      <point x="460" y="-226" type="curve" smooth="yes"/>
      <point x="507" y="-226"/>
      <point x="534" y="-218"/>
      <point x="559" y="-210" type="curve"/>
      <point x="557" y="-200" type="line"/>
      <point x="538" y="-205"/>
      <point x="517" y="-210"/>
      <point x="489" y="-210" type="curve" smooth="yes"/>
      <point x="419" y="-210"/>
      <point x="382" y="-154"/>
      <point x="376" y="-7" type="curve"/>
      <point x="608" y="27"/>
      <point x="720" y="278"/>
      <point x="720" y="450" type="curve" smooth="yes"/>
      <point x="720" y="641"/>
      <point x="599" y="725"/>
      <point x="461" y="725" type="curve" smooth="yes"/>
      <point x="196" y="725"/>
      <point x="61" y="458"/>
      <point x="61" y="266" type="curve" smooth="yes"/>
      <point x="61" y="108"/>
      <point x="148" y="14"/>
      <point x="268" y="-6" type="curve"/>
      <point x="273" y="-130"/>
      <point x="316" y="-226"/>
    </contour>
    <contour>
      <point x="329" y="-1" type="curve" smooth="yes"/>
      <point x="230" y="-1"/>
      <point x="170" y="60"/>
      <point x="170" y="238" type="curve" smooth="yes"/>
      <point x="170" y="426"/>
      <point x="262" y="715"/>
      <point x="456" y="715" type="curve" smooth="yes"/>
      <point x="547" y="715"/>
      <point x="610" y="653"/>
      <point x="610" y="477" type="curve" smooth="yes"/>
      <point x="610" y="288"/>
      <point x="523" y="-1"/>
    </contour>
  </outline>
</glyph>
<glyph name="Y" format="2">
  <advance width="625"/>
  <unicode hex="0059"/>
  <anchor x="261" y="0" name="bottom"/>
  <anchor x="413" y="714" name="top"/>
  <anchor x="765" y="714" name="topright"/>
  <outline>
    <contour>
      <point x="104" y="0" type="line"/>
      <point x="415" y="0" type="line"/>
      <point x="417" y="10" type="line"/>
      <point x="394" y="10" type="line" smooth="yes"/>
      <point x="352" y="10"/>
      <point x="322" y="16"/>
      <point x="322" y="50" type="curve" smooth="yes"/>
      <point x="322" y="56"/>
      <point x="324" y="70"/>
      <point x="326" y="78" type="curve" smooth="yes"/>
      <point x="372" y="291" type="line"/>
      <point x="612" y="628" type="line" smooth="yes"/>
      <point x="649" y="679"/>
      <point x="673" y="704"/>
      <point x="703" y="704" type="curve" smooth="yes"/>
      <point x="722" y="704" type="line"/>
      <point x="724" y="714" type="line"/>
      <point x="507" y="714" type="line"/>
      <point x="505" y="704" type="line"/>
      <point x="568" y="704" type="line" smooth="yes"/>
      <point x="604" y="704"/>
      <point x="617" y="694"/>
      <point x="617" y="673" type="curve" smooth="yes"/>
      <point x="617" y="655"/>
      <point x="608" y="638"/>
      <point x="586" y="608" type="curve" smooth="yes"/>
      <point x="436" y="397" type="line" smooth="yes"/>
      <point x="413" y="365"/>
      <point x="390" y="333"/>
      <point x="368" y="301" type="curve"/>
      <point x="357" y="339"/>
      <point x="347" y="379"/>
      <point x="336" y="417" type="curve" smooth="yes"/>
      <point x="281" y="619" type="line" smooth="yes"/>
      <point x="274" y="643"/>
      <point x="270" y="660"/>
      <point x="270" y="677" type="curve" smooth="yes"/>
      <point x="270" y="694"/>
      <point x="282" y="704"/>
      <point x="309" y="704" type="curve" smooth="yes"/>
      <point x="359" y="704" type="line"/>
      <point x="361" y="714" type="line"/>
      <point x="91" y="714" type="line"/>
      <point x="89" y="704" type="line"/>
      <point x="102" y="704" type="line" smooth="yes"/>
      <point x="141" y="704"/>
      <point x="150" y="690"/>
      <point x="162" y="651" type="curve" smooth="yes"/>
      <point x="271" y="293" type="line"/>
      <point x="225" y="77" type="line" smooth="yes"/>
      <point x="212" y="17"/>
      <point x="173" y="10"/>
      <point x="129" y="10" type="curve" smooth="yes"/>
      <point x="106" y="10" type="line"/>
    </contour>
  </outline>
</glyph>
<glyph name="grave" format="2">
  <advance width="259"/>
  <unicode hex="0060"/>
  <outline>
    <contour>
      <point x="281" y="606" type="curve"/>
      <point x="291" y="606" type="line"/>
      <point x="293" y="616" type="line"/>
      <point x="274" y="659"/>
      <point x="248" y="721"/>
      <point x="236" y="766" type="curve"/>
      <point x="146" y="766" type="line"/>
      <point x="144" y="756" type="line"/>
      <point x="166" y="721"/>
      <point x="238" y="647"/>
    </contour>
  </outline>
</glyph>
<glyph name="d" format="2">
  <advance width="580"/>
  <unicode hex="0064"/>
  <anchor x="223" y="0" name="bottom"/>
  <anchor x="337" y="268" name="center"/>
  <anchor x="385" y="760" name="top"/>
  <anchor x="619" y="760" name="topright"/>
  <outline>
    <contour>
      <point x="162" y="-10" type="curve" smooth="yes"/>
      <point x="241" y="-10"/>
      <point x="306" y="48"/>
      <point x="352" y="151" type="curve"/>
      <point x="355" y="151" type="line"/>
      <point x="348" y="118"/>
      <point x="345" y="90"/>
      <point x="345" y="73" type="curve" smooth="yes"/>
      <point x="345" y="21"/>
      <point x="375" y="-10"/>
      <point x="423" y="-10" type="curve" smooth="yes"/>
      <point x="473" y="-10"/>
      <point x="535" y="24"/>
      <point x="564" y="50" type="curve"/>
      <point x="559" y="58" type="line"/>
      <point x="534" y="39"/>
      <point x="505" y="24"/>
      <point x="483" y="24" type="curve" smooth="yes"/>
      <point x="453" y="24"/>
      <point x="441" y="52"/>
      <point x="441" y="104" type="curve" smooth="yes"/>
      <point x="441" y="131"/>
      <point x="451" y="193"/>
      <point x="456" y="215" type="curve" smooth="yes"/>
      <point x="572" y="760" type="line"/>
      <point x="388" y="760" type="line"/>
      <point x="386" y="750" type="line"/>
      <point x="399" y="750" type="line" smooth="yes"/>
      <point x="437" y="750"/>
      <point x="464" y="742"/>
      <point x="464" y="709" type="curve" smooth="yes"/>
      <point x="464" y="694"/>
      <point x="460" y="677"/>
      <point x="456" y="658" type="curve" smooth="yes"/>
      <point x="438" y="578" type="line" smooth="yes"/>
      <point x="433" y="556"/>
      <point x="429" y="540"/>
      <point x="426" y="522" type="curve"/>
      <point x="401" y="536"/>
      <point x="368" y="546"/>
      <point x="331" y="546" type="curve" smooth="yes"/>
      <point x="141" y="546"/>
      <point x="33" y="329"/>
      <point x="33" y="173" type="curve" smooth="yes"/>
      <point x="33" y="69"/>
      <point x="73" y="-10"/>
    </contour>
    <contour>
      <point x="205" y="17" type="curve" smooth="yes"/>
      <point x="165" y="17"/>
      <point x="135" y="60"/>
      <point x="135" y="169" type="curve" smooth="yes"/>
      <point x="135" y="302"/>
      <point x="206" y="534"/>
      <point x="340" y="534" type="curve" smooth="yes"/>
      <point x="374" y="534"/>
      <point x="405" y="522"/>
      <point x="422" y="509" type="curve"/>
      <point x="355" y="197" type="line" smooth="yes"/>
      <point x="338" y="120"/>
      <point x="268" y="17"/>
    </contour>
  </outline>
</glyph>
<glyph name="f" format="2">
  <advance width="317"/>
  <unicode hex="0066"/>
  <anchor x="-88" y="-240" name="bottom"/>
  <anchor x="350" y="770" name="top"/>
  <anchor x="499" y="770" name="topright"/>
  <outline>
    <contour>
      <point x="-88" y="-240" type="curve" smooth="yes"/>
      <point x="20" y="-240"/>
      <point x="91" y="-187"/>
      <point x="129" y="-8" type="curve" smooth="yes"/>
      <point x="243" y="526" type="line"/>
      <point x="354" y="526" type="line"/>
      <point x="356" y="536" type="line"/>
      <point x="245" y="536" type="line"/>
      <point x="258" y="600" type="line" smooth="yes"/>
      <point x="282" y="717"/>
      <point x="300" y="760"/>
      <point x="350" y="760" type="curve" smooth="yes"/>
      <point x="391" y="760"/>
      <point x="399" y="702"/>
      <point x="398" y="631" type="curve"/>
      <point x="451" y="631"/>
      <point x="481" y="652"/>
      <point x="481" y="696" type="curve" smooth="yes"/>
      <point x="481" y="740"/>
      <point x="437" y="770"/>
      <point x="352" y="770" type="curve" smooth="yes"/>
      <point x="242" y="770"/>
      <point x="184" y="705"/>
      <point x="162" y="591" type="curve" smooth="yes"/>
      <point x="151" y="536" type="line"/>
      <point x="59" y="532" type="line"/>
      <point x="58" y="526" type="line"/>
      <point x="150" y="526" type="line"/>
      <point x="35" y="-9" type="line" smooth="yes"/>
      <point x="1" y="-168"/>
      <point x="-28" y="-229"/>
      <point x="-98" y="-229" type="curve" smooth="yes"/>
      <point x="-113" y="-229"/>
      <point x="-133" y="-225"/>
      <point x="-144" y="-222" type="curve"/>
      <point x="-146" y="-232" type="line"/>
      <point x="-133" y="-236"/>
      <point x="-108" y="-240"/>
    </contour>
  </outline>
</glyph>
<glyph name="h" format="2">
  <advance width="595"/>
  <unicode hex="0068"/>
  <anchor x="239" y="0" name="bottom"/>
  <anchor x="353" y="268" name="center"/>
  <anchor x="401" y="760" name="top"/>
  <anchor x="590" y="760" name="topright"/>
  <outline>
    <contour>
      <point x="456" y="-10" type="curve" smooth="yes"/>
      <point x="508" y="-10"/>
      <point x="546" y="20"/>
      <point x="578" y="47" type="curve"/>
      <point x="572" y="55" type="line"/>
      <point x="549" y="37"/>
      <point x="530" y="27"/>
      <point x="513" y="27" type="curve" smooth="yes"/>
      <point x="478" y="27"/>
      <point x="461" y="53"/>
      <point x="461" y="101" type="curve" smooth="yes"/>
      <point x="461" y="131"/>
      <point x="466" y="169"/>
      <point x="474" y="206" type="curve" smooth="yes"/>
      <point x="500" y="324" type="line" smooth="yes"/>
      <point x="507" y="358"/>
      <point x="518" y="401"/>
      <point x="518" y="434" type="curve" smooth="yes"/>
      <point x="518" y="493"/>
      <point x="490" y="545"/>
      <point x="411" y="545" type="curve" smooth="yes"/>
      <point x="334" y="545"/>
      <point x="276" y="498"/>
      <point x="220" y="410" type="curve"/>
      <point x="216" y="410" type="line"/>
      <point x="223" y="435"/>
      <point x="240" y="505"/>
      <point x="255" y="576" type="curve" smooth="yes"/>
      <point x="294" y="760" type="line"/>
      <point x="110" y="760" type="line"/>
      <point x="108" y="750" type="line"/>
      <point x="116" y="750" type="line" smooth="yes"/>
      <point x="154" y="750"/>
      <point x="186" y="743"/>
      <point x="186" y="703" type="curve" smooth="yes"/>
      <point x="186" y="697"/>
      <point x="183" y="677"/>
      <point x="177" y="650" type="curve" smooth="yes"/>
      <point x="40" y="0" type="line"/>
      <point x="133" y="0" type="line"/>
      <point x="203" y="329" type="line" smooth="yes"/>
      <point x="217" y="394"/>
      <point x="292" y="518"/>
      <point x="368" y="518" type="curve" smooth="yes"/>
      <point x="414" y="518"/>
      <point x="422" y="470"/>
      <point x="422" y="434" type="curve" smooth="yes"/>
      <point x="422" y="387"/>
      <point x="407" y="330"/>
      <point x="401" y="303" type="curve" smooth="yes"/>
      <point x="384" y="225" type="line" smooth="yes"/>
      <point x="371" y="164"/>
      <point x="365" y="122"/>
      <point x="365" y="90" type="curve" smooth="yes"/>
      <point x="365" y="32"/>
      <point x="397" y="-10"/>
    </contour>
  </outline>
</glyph>
<glyph name="j" format="2">
  <advance width="291"/>
  <unicode hex="006A"/>
  <anchor x="-82" y="-240" name="bottom"/>
  <anchor x="251" y="761" name="top"/>
  <anchor x="376" y="761" name="topright"/>
  <outline>
    <contour>
      <point x="-82" y="-240" type="curve" smooth="yes"/>
      <point x="26" y="-240"/>
      <point x="98" y="-186"/>
      <point x="136" y="-8" type="curve" smooth="yes"/>
      <point x="251" y="536" type="line"/>
      <point x="72" y="536" type="line"/>
      <point x="70" y="526" type="line"/>
      <point x="83" y="526" type="line" smooth="yes"/>
      <point x="120" y="526"/>
      <point x="144" y="520"/>
      <point x="144" y="484" type="curve" smooth="yes"/>
      <point x="144" y="477"/>
      <point x="143" y="468"/>
      <point x="141" y="458" type="curve" smooth="yes"/>
      <point x="42" y="-8" type="line" smooth="yes"/>
      <point x="12" y="-167"/>
      <point x="-22" y="-229"/>
      <point x="-92" y="-229" type="curve" smooth="yes"/>
      <point x="-107" y="-229"/>
      <point x="-127" y="-225"/>
      <point x="-138" y="-222" type="curve"/>
      <point x="-140" y="-232" type="line"/>
      <point x="-127" y="-236"/>
      <point x="-102" y="-240"/>
    </contour>
    <contour>
      <point x="225" y="636" type="curve" smooth="yes"/>
      <point x="249" y="636"/>
      <point x="275" y="648"/>
      <point x="275" y="701" type="curve" smooth="yes"/>
      <point x="275" y="739"/>
      <point x="255" y="751"/>
      <point x="229" y="751" type="curve" smooth="yes"/>
      <point x="199" y="751"/>
      <point x="179" y="730"/>
      <point x="179" y="686" type="curve" smooth="yes"/>
      <point x="179" y="648"/>
      <point x="198" y="636"/>
    </contour>
  </outline>
</glyph>
<glyph name="y" format="2">
  <advance width="520"/>
  <unicode hex="0079"/>
  <anchor x="49" y="-240" name="bottom"/>
  <anchor x="271" y="536" name="top"/>
  <anchor x="548" y="536" name="topright"/>
  <outline>
    <contour>
      <point x="-65" y="-240" type="curve" smooth="yes"/>
      <point x="121" y="-240"/>
      <point x="193" y="-146"/>
      <point x="324" y="57" type="curve"/>
      <point x="431" y="220"/>
      <point x="500" y="357"/>
      <point x="500" y="461" type="curve" smooth="yes"/>
      <point x="500" y="517"/>
      <point x="474" y="545"/>
      <point x="432" y="545" type="curve" smooth="yes"/>
      <point x="400" y="545"/>
      <point x="367" y="519"/>
      <point x="367" y="471" type="curve"/>
      <point x="443" y="471"/>
      <point x="467" y="443"/>
      <point x="467" y="399" type="curve" smooth="yes"/>
      <point x="467" y="323"/>
      <point x="380" y="159"/>
      <point x="295" y="32" type="curve"/>
      <point x="294" y="32" type="line"/>
      <point x="287" y="66"/>
      <point x="250" y="214"/>
      <point x="236" y="266" type="curve" smooth="yes"/>
      <point x="163" y="536" type="line"/>
      <point x="12" y="536" type="line"/>
      <point x="10" y="526" type="line"/>
      <point x="20" y="526" type="line" smooth="yes"/>
      <point x="59" y="526"/>
      <point x="68" y="513"/>
      <point x="79" y="473" type="curve" smooth="yes"/>
      <point x="230" y="-61" type="line"/>
      <point x="160" y="-162"/>
      <point x="60" y="-223"/>
      <point x="-72" y="-223" type="curve" smooth="yes"/>
      <point x="-119" y="-223"/>
      <point x="-140" y="-217"/>
      <point x="-156" y="-212" type="curve"/>
      <point x="-159" y="-222" type="line"/>
      <point x="-134" y="-233"/>
      <point x="-99" y="-240"/>
    </contour>
  </outline>
</glyph>
<glyph name="cent" format="2">
  <advance width="559"/>
  <unicode hex="00A2"/>
  <anchor x="246" y="97" name="bottom"/>
  <anchor x="360" y="633" name="top"/>
  <anchor x="563" y="633" name="topright"/>
  <outline>
    <contour>
      <point x="243" y="0" type="line"/>
      <point x="253" y="0" type="line"/>
      <point x="405" y="714" type="line"/>
      <point x="395" y="714" type="line"/>
    </contour>
    <component base="c" xOffset="43" yOffset="97"/>
  </outline>
</glyph>
<glyph name="section" format="2">
  <advance width="544"/>
  <unicode hex="00A7"/>
  <outline>
    <contour>
      <point x="190" y="-115" type="curve" smooth="yes"/>
      <point x="333" y="-115"/>
      <point x="416" y="-23"/>
      <point x="416" y="90" type="curve" smooth="yes"/>
      <point x="416" y="131"/>
      <point x="401" y="157"/>
      <point x="388" y="176" type="curve"/>
      <point x="440" y="209"/>
      <point x="483" y="258"/>
      <point x="483" y="318" type="curve" smooth="yes"/>
      <point x="483" y="376"/>
      <point x="448" y="423"/>
      <point x="361" y="470" type="curve" smooth="yes"/>
      <point x="259" y="525"/>
      <point x="229" y="550"/>
      <point x="229" y="614" type="curve" smooth="yes"/>
      <point x="229" y="706"/>
      <point x="292" y="749"/>
      <point x="348" y="749" type="curve" smooth="yes"/>
      <point x="433" y="749"/>
      <point x="442" y="680"/>
      <point x="442" y="591" type="curve"/>
      <point x="496" y="591"/>
      <point x="523" y="607"/>
      <point x="523" y="660" type="curve" smooth="yes"/>
      <point x="523" y="713"/>
      <point x="462" y="760"/>
      <point x="365" y="760" type="curve" smooth="yes"/>
      <point x="246" y="760"/>
      <point x="152" y="694"/>
      <point x="152" y="579" type="curve" smooth="yes"/>
      <point x="152" y="536"/>
      <point x="167" y="503"/>
      <point x="182" y="482" type="curve"/>
      <point x="134" y="456"/>
      <point x="88" y="414"/>
      <point x="88" y="345" type="curve" smooth="yes"/>
      <point x="88" y="289"/>
      <point x="114" y="239"/>
      <point x="199" y="192" type="curve" smooth="yes"/>
      <point x="329" y="121"/>
      <point x="342" y="90"/>
      <point x="342" y="40" type="curve" smooth="yes"/>
      <point x="342" y="-41"/>
      <point x="284" y="-105"/>
      <point x="197" y="-105" type="curve" smooth="yes"/>
      <point x="109" y="-105"/>
      <point x="83" y="-27"/>
      <point x="83" y="64" type="curve"/>
      <point x="59" y="64"/>
      <point x="20" y="52"/>
      <point x="20" y="-2" type="curve" smooth="yes"/>
      <point x="20" y="-72"/>
      <point x="90" y="-115"/>
    </contour>
    <contour>
      <point x="382" y="184" type="curve"/>
      <point x="354" y="213"/>
      <point x="314" y="239"/>
      <point x="274" y="263" type="curve" smooth="yes"/>
      <point x="186" y="311"/>
      <point x="158" y="342"/>
      <point x="158" y="390" type="curve" smooth="yes"/>
      <point x="158" y="428"/>
      <point x="170" y="454"/>
      <point x="187" y="475" type="curve"/>
      <point x="217" y="439"/>
      <point x="257" y="415"/>
      <point x="305" y="388" type="curve"/>
      <point x="385" y="344"/>
      <point x="408" y="306"/>
      <point x="408" y="272" type="curve" smooth="yes"/>
      <point x="408" y="236"/>
      <point x="396" y="209"/>
    </contour>
  </outline>
</glyph>
<glyph name="copyright" format="2">
  <advance width="845"/>
  <unicode hex="00A9"/>
  <outline>
    <contour>
      <point x="441" y="-10" type="curve" smooth="yes"/>
      <point x="655" y="-10"/>
      <point x="809" y="144"/>
      <point x="809" y="357" type="curve" smooth="yes"/>
      <point x="809" y="571"/>
      <point x="655" y="725"/>
      <point x="441" y="725" type="curve" smooth="yes"/>
      <point x="227" y="725"/>
      <point x="74" y="570"/>
      <point x="74" y="358" type="curve" smooth="yes"/>
      <point x="74" y="144"/>
      <point x="228" y="-10"/>
    </contour>
    <contour>
      <point x="443" y="129" type="curve" smooth="yes"/>
      <point x="535" y="129"/>
      <point x="599" y="173"/>
      <point x="599" y="215" type="curve" smooth="yes"/>
      <point x="599" y="228"/>
      <point x="593" y="239"/>
      <point x="582" y="243" type="curve"/>
      <point x="564" y="175"/>
      <point x="519" y="139"/>
      <point x="456" y="139" type="curve" smooth="yes"/>
      <point x="369" y="139"/>
      <point x="321" y="206"/>
      <point x="321" y="358" type="curve" smooth="yes"/>
      <point x="321" y="508"/>
      <point x="355" y="574"/>
      <point x="439" y="574" type="curve" smooth="yes"/>
      <point x="500" y="574"/>
      <point x="528" y="540"/>
      <point x="528" y="464" type="curve"/>
      <point x="567" y="464"/>
      <point x="598" y="482"/>
      <point x="598" y="514" type="curve" smooth="yes"/>
      <point x="598" y="558"/>
      <point x="538" y="585"/>
      <point x="458" y="585" type="curve" smooth="yes"/>
      <point x="314" y="585"/>
      <point x="237" y="499"/>
      <point x="237" y="358" type="curve" smooth="yes"/>
      <point x="237" y="220"/>
      <point x="306" y="129"/>
    </contour>
    <contour>
      <point x="443" y="0" type="curve" smooth="yes"/>
      <point x="242" y="0"/>
      <point x="86" y="146"/>
      <point x="86" y="358" type="curve" smooth="yes"/>
      <point x="86" y="565"/>
      <point x="235" y="715"/>
      <point x="441" y="715" type="curve" smooth="yes"/>
      <point x="648" y="715"/>
      <point x="797" y="564"/>
      <point x="797" y="358" type="curve" smooth="yes"/>
      <point x="797" y="151"/>
      <point x="647" y="0"/>
    </contour>
  </outline>
</glyph>
<glyph name="Aring" format="2">
  <advance width="705"/>
  <unicode hex="00C5"/>
  <anchor x="296" y="0" name="bottom"/>
  <anchor x="457" y="870" name="top"/>
  <anchor x="780" y="714" name="topright"/>
  <outline>
    <contour>
      <point x="-56" y="0" type="line"/>
      <point x="181" y="0" type="line"/>
      <point x="183" y="10" type="line"/>
      <point x="114" y="10" type="line" smooth="yes"/>
      <point x="76" y="10"/>
      <point x="58" y="21"/>
      <point x="58" y="46" type="curve" smooth="yes"/>
      <point x="58" y="60"/>
      <point x="63" y="78"/>
      <point x="77" y="102" type="curve" smooth="yes"/>
      <point x="292" y="473" type="line" smooth="yes"/>
      <point x="326" y="532"/>
      <point x="385" y="631"/>
      <point x="407" y="674" type="curve"/>
      <point x="410" y="631"/>
      <point x="422" y="523"/>
      <point x="430" y="464" type="curve" smooth="yes"/>
      <point x="477" y="95" type="line" smooth="yes"/>
      <point x="478" y="86"/>
      <point x="479" y="72"/>
      <point x="479" y="61" type="curve" smooth="yes"/>
      <point x="479" y="29"/>
      <point x="454" y="10"/>
      <point x="402" y="10" type="curve" smooth="yes"/>
      <point x="379" y="10" type="line"/>
      <point x="377" y="0" type="line"/>
      <point x="649" y="0" type="line"/>
      <point x="651" y="10" type="line"/>
      <point x="638" y="10" type="line" smooth="yes"/>
      <point x="599" y="10"/>
      <point x="585" y="21"/>
      <point x="579" y="63" type="curve" smooth="yes"/>
      <point x="490" y="682" type="line"/>
      <point x="460" y="676" type="line"/>
      <point x="428" y="676" type="line"/>
      <point x="403" y="682" type="line"/>
      <point x="58" y="88" type="line" smooth="yes"/>
      <point x="20" y="23"/>
      <point x="4" y="10"/>
      <point x="-35" y="10" type="curve" smooth="yes"/>
      <point x="-54" y="10" type="line"/>
    </contour>
    <contour>
      <point x="161" y="259" type="line"/>
      <point x="504" y="259" type="line"/>
      <point x="504" y="269" type="line"/>
      <point x="166" y="269" type="line"/>
    </contour>
    <component base="ring" xOffset="198" yOffset="76"/>
  </outline>
</glyph>
<glyph name="eth" format="2">
  <advance width="574"/>
  <unicode hex="00F0"/>
  <anchor x="230" y="0" name="bottom"/>
  <anchor x="392" y="762" name="top"/>
  <outline>
    <contour>
      <point x="234" y="-10" type="curve" smooth="yes"/>
      <point x="439" y="-10"/>
      <point x="528" y="165"/>
      <point x="528" y="362" type="curve" smooth="yes"/>
      <point x="528" y="575"/>
      <point x="411" y="713"/>
      <point x="228" y="761" type="curve"/>
      <point x="225" y="752" type="line"/>
      <point x="333" y="708"/>
      <point x="416" y="609"/>
      <point x="431" y="461" type="curve"/>
      <point x="411" y="490"/>
      <point x="377" y="507"/>
      <point x="329" y="507" type="curve" smooth="yes"/>
      <point x="134" y="507"/>
      <point x="43" y="317"/>
      <point x="43" y="180" type="curve" smooth="yes"/>
      <point x="43" y="56"/>
      <point x="121" y="-9"/>
    </contour>
    <contour>
      <point x="236" y="0" type="curve" smooth="yes"/>
      <point x="178" y="0"/>
      <point x="147" y="50"/>
      <point x="147" y="164" type="curve" smooth="yes"/>
      <point x="147" y="289"/>
      <point x="196" y="497"/>
      <point x="330" y="497" type="curve" smooth="yes"/>
      <point x="391" y="497"/>
      <point x="424" y="444"/>
      <point x="424" y="324" type="curve" smooth="yes"/>
      <point x="424" y="202"/>
      <point x="374" y="0"/>
    </contour>
    <contour>
      <point x="214" y="559" type="line"/>
      <point x="526" y="739" type="line"/>
      <point x="529" y="752" type="line"/>
      <point x="217" y="572" type="line"/>
    </contour>
  </outline>
</glyph>
<glyph name="longs" format="2">
  <advance width="300"/>
  <unicode hex="017F"/>
  <anchor x="-82" y="-240" name="bottom"/>
  <anchor x="358" y="770" name="top"/>
  <outline>
    <contour>
      <point x="-82" y="-240" type="curve" smooth="yes"/>
      <point x="26" y="-240"/>
      <point x="97" y="-187"/>
      <point x="135" y="-8" type="curve" smooth="yes"/>
      <point x="264" y="600" type="line" smooth="yes"/>
      <point x="288" y="717"/>
      <point x="306" y="760"/>
      <point x="356" y="760" type="curve" smooth="yes"/>
      <point x="397" y="760"/>
      <point x="405" y="702"/>
      <point x="404" y="631" type="curve"/>
      <point x="457" y="631"/>
      <point x="487" y="652"/>
      <point x="487" y="696" type="curve" smooth="yes"/>
      <point x="487" y="740"/>
      <point x="443" y="770"/>
      <point x="358" y="770" type="curve" smooth="yes"/>
      <point x="248" y="770"/>
      <point x="190" y="705"/>
      <point x="168" y="591" type="curve" smooth="yes"/>
      <point x="41" y="-9" type="line" smooth="yes"/>
      <point x="7" y="-168"/>
      <point x="-22" y="-229"/>
      <point x="-92" y="-229" type="curve" smooth="yes"/>
      <point x="-107" y="-229"/>
      <point x="-127" y="-225"/>
      <point x="-138" y="-222" type="curve"/>
      <point x="-140" y="-232" type="line"/>
      <point x="-127" y="-236"/>
      <point x="-102" y="-240"/>
    </contour>
  </outline>
</glyph>
<glyph name="uni0191" format="2">
  <advance width="729"/>
  <unicode hex="0191"/>
  <anchor x="123" y="-10" name="bottom"/>
  <anchor x="523" y="714" name="top"/>
  <outline>
    <contour>
      <point x="123" y="-10" type="curve" smooth="yes"/>
      <point x="251" y="-10"/>
      <point x="320" y="58"/>
      <point x="341" y="155" type="curve" smooth="yes"/>
      <point x="387" y="366" type="line"/>
      <point x="628" y="366" type="line"/>
      <point x="630" y="376" type="line"/>
      <point x="389" y="376" type="line"/>
      <point x="458" y="704" type="line"/>
      <point x="635" y="704" type="line" smooth="yes"/>
      <point x="704" y="704"/>
      <point x="730" y="658"/>
      <point x="730" y="597" type="curve" smooth="yes"/>
      <point x="730" y="587"/>
      <point x="727" y="561"/>
      <point x="725" y="539" type="curve"/>
      <point x="735" y="539" type="line"/>
      <point x="767" y="714" type="line"/>
      <point x="263" y="714" type="line"/>
      <point x="261" y="704" type="line"/>
      <point x="274" y="704" type="line" smooth="yes"/>
      <point x="316" y="704"/>
      <point x="346" y="698"/>
      <point x="346" y="664" type="curve" smooth="yes"/>
      <point x="346" y="658"/>
      <point x="344" y="644"/>
      <point x="342" y="636" type="curve"/>
      <point x="233" y="118" type="line" smooth="yes"/>
      <point x="218" y="47"/>
      <point x="198" y="0"/>
      <point x="127" y="0" type="curve" smooth="yes"/>
      <point x="55" y="0"/>
      <point x="25" y="61"/>
      <point x="25" y="137" type="curve" smooth="yes"/>
      <point x="25" y="147"/>
      <point x="26" y="158"/>
      <point x="27" y="169" type="curve"/>
      <point x="3" y="169"/>
      <point x="-42" y="157"/>
      <point x="-42" y="103" type="curve" smooth="yes"/>
      <point x="-42" y="33"/>
      <point x="23" y="-10"/>
    </contour>
  </outline>
</glyph>
<glyph name="Uhorn" format="2">
  <advance width="778"/>
  <unicode hex="01AF"/>
  <anchor x="332" y="0" name="bottom"/>
  <anchor x="484" y="714" name="top"/>
  <outline>
    <contour>
      <point x="323" y="-10" type="curve" smooth="yes"/>
      <point x="482" y="-10"/>
      <point x="565" y="71"/>
      <point x="593" y="204" type="curve" smooth="yes"/>
      <point x="665" y="544" type="line"/>
      <point x="786" y="564"/>
      <point x="862" y="629"/>
      <point x="862" y="714" type="curve" smooth="yes"/>
      <point x="862" y="747"/>
      <point x="840" y="770"/>
      <point x="804" y="770" type="curve" smooth="yes"/>
      <point x="770" y="770"/>
      <point x="745" y="751"/>
      <point x="745" y="718" type="curve" smooth="yes"/>
      <point x="745" y="676"/>
      <point x="790" y="674"/>
      <point x="790" y="640" type="curve" smooth="yes"/>
      <point x="790" y="595"/>
      <point x="736" y="564"/>
      <point x="667" y="554" type="curve"/>
      <point x="701" y="714" type="line"/>
      <point x="545" y="714" type="line"/>
      <point x="543" y="704" type="line"/>
      <point x="556" y="704" type="line" smooth="yes"/>
      <point x="598" y="704"/>
      <point x="628" y="698"/>
      <point x="628" y="664" type="curve" smooth="yes"/>
      <point x="628" y="658"/>
      <point x="626" y="644"/>
      <point x="624" y="636" type="curve" smooth="yes"/>
      <point x="532" y="206" type="line" smooth="yes"/>
      <point x="507" y="91"/>
      <point x="466" y="0"/>
      <point x="333" y="0" type="curve" smooth="yes"/>
      <point x="245" y="0"/>
      <point x="194" y="53"/>
      <point x="194" y="136" type="curve" smooth="yes"/>
      <point x="194" y="182"/>
      <point x="199" y="213"/>
      <point x="206" y="247" type="curve" smooth="yes"/>
      <point x="287" y="632" type="line" smooth="yes"/>
      <point x="300" y="695"/>
      <point x="341" y="704"/>
      <point x="385" y="704" type="curve" smooth="yes"/>
      <point x="398" y="704" type="line"/>
      <point x="400" y="714" type="line"/>
      <point x="109" y="714" type="line"/>
      <point x="106" y="704" type="line"/>
      <point x="119" y="704" type="line" smooth="yes"/>
      <point x="161" y="704"/>
      <point x="191" y="698"/>
      <point x="191" y="664" type="curve" smooth="yes"/>
      <point x="191" y="658"/>
      <point x="189" y="644"/>
      <point x="187" y="636" type="curve" smooth="yes"/>
      <point x="107" y="252" type="line" smooth="yes"/>
      <point x="102" y="229"/>
      <point x="96" y="184"/>
      <point x="96" y="163" type="curve" smooth="yes"/>
      <point x="96" y="53"/>
      <point x="177" y="-10"/>
    </contour>
  </outline>
</glyph>
<glyph name="uhorn" format="2">
  <advance width="653"/>
  <unicode hex="01B0"/>
  <anchor x="270" y="0" name="bottom"/>
  <anchor x="384" y="536" name="top"/>
  <outline>
    <contour>
      <point x="456" y="-10" type="curve" smooth="yes"/>
      <point x="506" y="-10"/>
      <point x="554" y="20"/>
      <point x="583" y="46" type="curve"/>
      <point x="578" y="53" type="line"/>
      <point x="552" y="34"/>
      <point x="535" y="26"/>
      <point x="513" y="26" type="curve" smooth="yes"/>
      <point x="483" y="26"/>
      <point x="468" y="52"/>
      <point x="468" y="104" type="curve" smooth="yes"/>
      <point x="468" y="131"/>
      <point x="478" y="193"/>
      <point x="483" y="215" type="curve" smooth="yes"/>
      <point x="523" y="402" type="line"/>
      <point x="622" y="420"/>
      <point x="720" y="472"/>
      <point x="720" y="572" type="curve" smooth="yes"/>
      <point x="720" y="605"/>
      <point x="698" y="628"/>
      <point x="662" y="628" type="curve" smooth="yes"/>
      <point x="628" y="628"/>
      <point x="603" y="609"/>
      <point x="603" y="576" type="curve" smooth="yes"/>
      <point x="603" y="536"/>
      <point x="648" y="529"/>
      <point x="648" y="495" type="curve" smooth="yes"/>
      <point x="648" y="455"/>
      <point x="597" y="427"/>
      <point x="525" y="412" type="curve"/>
      <point x="552" y="536" type="line"/>
      <point x="455" y="536" type="line"/>
      <point x="384" y="204" type="line" smooth="yes"/>
      <point x="369" y="132"/>
      <point x="289" y="20"/>
      <point x="225" y="20" type="curve" smooth="yes"/>
      <point x="179" y="20"/>
      <point x="166" y="56"/>
      <point x="166" y="112" type="curve" smooth="yes"/>
      <point x="166" y="141"/>
      <point x="178" y="201"/>
      <point x="186" y="237" type="curve" smooth="yes"/>
      <point x="252" y="536" type="line"/>
      <point x="66" y="536" type="line"/>
      <point x="64" y="526" type="line"/>
      <point x="72" y="526" type="line" smooth="yes"/>
      <point x="110" y="526"/>
      <point x="142" y="519"/>
      <point x="142" y="479" type="curve" smooth="yes"/>
      <point x="142" y="468"/>
      <point x="137" y="438"/>
      <point x="133" y="419" type="curve" smooth="yes"/>
      <point x="87" y="212" type="line" smooth="yes"/>
      <point x="79" y="178"/>
      <point x="69" y="135"/>
      <point x="69" y="102" type="curve" smooth="yes"/>
      <point x="69" y="43"/>
      <point x="97" y="-9"/>
      <point x="176" y="-9" type="curve" smooth="yes"/>
      <point x="268" y="-9"/>
      <point x="322" y="56"/>
      <point x="373" y="144" type="curve"/>
      <point x="376" y="144" type="line"/>
      <point x="373" y="122"/>
      <point x="372" y="100"/>
      <point x="372" y="85" type="curve" smooth="yes"/>
      <point x="372" y="33"/>
      <point x="403" y="-10"/>
    </contour>
  </outline>
</glyph>
<glyph name="uni0247" format="2">
  <advance width="493"/>
  <unicode hex="0247"/>
  <anchor x="146" y="-207" name="bottom"/>
  <anchor x="342" y="714" name="top"/>
  <anchor x="525" y="536" name="topright"/>
  <outline>
    <contour>
      <point x="71" y="-207" type="line"/>
      <point x="81" y="-207" type="line"/>
      <point x="417" y="714" type="line"/>
      <point x="407" y="714" type="line"/>
    </contour>
    <component base="e"/>
  </outline>
</glyph>
<glyph name="uni0249" format="2">
  <advance width="294"/>
  <unicode hex="0249"/>
  <anchor x="38" y="-240" name="bottom"/>
  <anchor x="251" y="761" name="top"/>
  <anchor x="376" y="761" name="topright"/>
  <outline>
    <contour>
      <point x="17" y="280" type="line"/>
      <point x="285" y="280" type="line"/>
      <point x="287" y="290" type="line"/>
      <point x="19" y="290" type="line"/>
    </contour>
    <component base="j"/>
  </outline>
</glyph>
<glyph name="caron" format="2">
  <advance width="375"/>
  <unicode hex="02C7"/>
  <outline>
    <contour>
      <point x="221" y="606" type="curve"/>
      <point x="296" y="606" type="line"/>
      <point x="336" y="656"/>
      <point x="397" y="717"/>
      <point x="439" y="756" type="curve"/>
      <point x="441" y="766" type="line"/>
      <point x="431" y="766" type="line"/>
      <point x="378" y="740"/>
      <point x="314" y="701"/>
      <point x="268" y="665" type="curve"/>
      <point x="238" y="701"/>
      <point x="195" y="739"/>
      <point x="156" y="766" type="curve"/>
      <point x="146" y="766" type="line"/>
      <point x="144" y="756" type="line"/>
      <point x="170" y="717"/>
      <point x="204" y="655"/>
    </contour>
  </outline>
</glyph>
<glyph name="ogonek" format="2">
  <advance width="296"/>
  <unicode hex="02DB"/>
  <outline>
    <contour>
      <point x="71" y="-240" type="curve" smooth="yes"/>
      <point x="100" y="-240"/>
      <point x="128" y="-234"/>
      <point x="151" y="-224" type="curve"/>
      <point x="153" y="-214" type="line"/>
      <point x="129" y="-223"/>
      <point x="107" y="-226"/>
      <point x="96" y="-226" type="curve" smooth="yes"/>
      <point x="60" y="-226"/>
      <point x="41" y="-200"/>
      <point x="41" y="-161" type="curve" smooth="yes"/>
      <point x="41" y="-58"/>
      <point x="88" y="-23"/>
      <point x="143" y="0" type="curve"/>
      <point x="123" y="0" type="line"/>
      <point x="23" y="-25"/>
      <point x="-46" y="-73"/>
      <point x="-46" y="-148" type="curve" smooth="yes"/>
      <point x="-46" y="-206"/>
      <point x="-2" y="-240"/>
    </contour>
  </outline>
</glyph>
<glyph name="koroniscomb" format="2">
  <unicode hex="0343"/>
  <anchor x="55" y="536" name="_top"/>
  <anchor x="78" y="714" name="top"/>
  <outline>
    <contour>
      <point x="2" y="554" type="line"/>
      <point x="14" y="554" type="line"/>
      <point x="67" y="601"/>
      <point x="120" y="658"/>
      <point x="152" y="704" type="curve"/>
      <point x="154" y="714" type="line"/>
      <point x="59" y="714" type="line"/>
      <point x="47" y="666"/>
      <point x="26" y="608"/>
      <point x="4" y="564" type="curve"/>
    </contour>
  </outline>
</glyph>
<glyph name="nottildeabovecomb" format="2">
  <unicode hex="034A"/>
  <anchor x="57" y="536" name="_top"/>
  <anchor x="107" y="770" name="top"/>
  <outline>
    <contour>
      <point x="26" y="579" type="line"/>
      <point x="67" y="636" type="line"/>
      <point x="94" y="621"/>
      <point x="121" y="606"/>
      <point x="154" y="606" type="curve" smooth="yes"/>
      <point x="220" y="606"/>
      <point x="257" y="667"/>
      <point x="275" y="724" type="curve"/>
      <point x="265" y="724" type="line"/>
      <point x="253" y="695"/>
      <point x="240" y="671"/>
      <point x="199" y="671" type="curve" smooth="yes"/>
      <point x="166" y="671"/>
      <point x="139" y="685"/>
      <point x="113" y="700" type="curve"/>
      <point x="154" y="757" type="line"/>
      <point x="146" y="762" type="line"/>
      <point x="104" y="704" type="line"/>
      <point x="77" y="719"/>
      <point x="50" y="734"/>
      <point x="17" y="734" type="curve" smooth="yes"/>
      <point x="-48" y="734"/>
      <point x="-85" y="675"/>
      <point x="-104" y="616" type="curve"/>
      <point x="-94" y="616" type="line"/>
      <point x="-82" y="643"/>
      <point x="-71" y="669"/>
      <point x="-27" y="669" type="curve" smooth="yes"/>
      <point x="6" y="669"/>
      <point x="33" y="655"/>
      <point x="59" y="641" type="curve"/>
      <point x="18" y="584" type="line"/>
    </contour>
  </outline>
</glyph>
<glyph name="breveinverteddoublecomb" format="2">
  <unicode hex="0361"/>
  <anchor x="-194" y="596" name="_top"/>
  <anchor x="102" y="826" name="top"/>
  <outline>
    <contour>
      <point x="-297" y="645" type="curve"/>
      <point x="-287" y="645" type="line"/>
      <point x="-219" y="718"/>
      <point x="-108" y="766"/>
      <point x="105" y="766" type="curve" smooth="yes"/>
      <point x="288" y="766"/>
      <point x="404" y="730"/>
      <point x="446" y="645" type="curve"/>
      <point x="456" y="645" type="line"/>
      <point x="414" y="760"/>
      <point x="298" y="826"/>
      <point x="108" y="826" type="curve" smooth="yes"/>
      <point x="-96" y="826"/>
      <point x="-201" y="769"/>
    </contour>
  </outline>
</glyph>
<glyph name="pi" format="2">
  <advance width="628"/>
  <unicode hex="03C0"/>
  <anchor x="256" y="0" name="bottom"/>
  <anchor x="370" y="536" name="top"/>
  <outline>
    <contour>
      <point x="444" y="-8" type="curve" smooth="yes"/>
      <point x="483" y="-8"/>
      <point x="518" y="8"/>
      <point x="556" y="37" type="curve"/>
      <point x="551" y="46" type="line"/>
      <point x="537" y="36"/>
      <point x="515" y="23"/>
      <point x="495" y="23" type="curve" smooth="yes"/>
      <point x="470" y="23"/>
      <point x="447" y="43"/>
      <point x="447" y="99" type="curve" smooth="yes"/>
      <point x="447" y="163"/>
      <point x="490" y="360"/>
      <point x="524" y="453" type="curve"/>
      <point x="631" y="453" type="line"/>
      <point x="649" y="536" type="line"/>
      <point x="193" y="536" type="line" smooth="yes"/>
      <point x="98" y="536"/>
      <point x="67" y="479"/>
      <point x="49" y="390" type="curve"/>
      <point x="59" y="390" type="line"/>
      <point x="70" y="427"/>
      <point x="88" y="453"/>
      <point x="137" y="453" type="curve" smooth="yes"/>
      <point x="266" y="453" type="line"/>
      <point x="192" y="184" type="line" smooth="yes"/>
      <point x="159" y="63"/>
      <point x="113" y="43"/>
      <point x="-2" y="43" type="curve"/>
      <point x="-11" y="12" type="line"/>
      <point x="5" y="2"/>
      <point x="27" y="-5"/>
      <point x="53" y="-5" type="curve" smooth="yes"/>
      <point x="147" y="-5"/>
      <point x="165" y="49"/>
      <point x="195" y="159" type="curve" smooth="yes"/>
      <point x="276" y="453" type="line"/>
      <point x="467" y="453" type="line"/>
      <point x="428" y="360"/>
      <point x="365" y="160"/>
      <point x="365" y="77" type="curve" smooth="yes"/>
      <point x="365" y="21"/>
      <point x="392" y="-8"/>
    </contour>
  </outline>
</glyph>
<glyph name="KaiSymbol" format="2">
  <advance width="708"/>
  <unicode hex="03CF"/>
  <outline>
    <contour>
      <point x="488" y="-237" type="line"/>
      <point x="495" y="-229" type="line"/>
      <point x="486" y="-221" type="line" smooth="yes"/>
      <point x="461" y="-199"/>
      <point x="448" y="-182"/>
      <point x="448" y="-166" type="curve" smooth="yes"/>
      <point x="448" y="-152"/>
      <point x="457" y="-139"/>
      <point x="475" y="-124" type="curve" smooth="yes"/>
      <point x="625" y="0" type="line"/>
      <point x="627" y="10" type="line"/>
      <point x="589" y="10"/>
      <point x="575" y="28"/>
      <point x="536" y="122" type="curve" smooth="yes"/>
      <point x="407" y="435" type="line"/>
      <point x="603" y="619" type="line" smooth="yes"/>
      <point x="657" y="670"/>
      <point x="711" y="704"/>
      <point x="754" y="704" type="curve"/>
      <point x="756" y="714" type="line"/>
      <point x="535" y="714" type="line"/>
      <point x="533" y="704" type="line"/>
      <point x="589" y="704"/>
      <point x="612" y="695"/>
      <point x="612" y="670" type="curve" smooth="yes"/>
      <point x="612" y="643"/>
      <point x="595" y="625"/>
      <point x="552" y="585" type="curve" smooth="yes"/>
      <point x="235" y="294" type="line"/>
      <point x="309" y="632" type="line" smooth="yes"/>
      <point x="323" y="695"/>
      <point x="361" y="704"/>
      <point x="406" y="704" type="curve" smooth="yes"/>
      <point x="419" y="704" type="line"/>
      <point x="421" y="714" type="line"/>
      <point x="130" y="714" type="line"/>
      <point x="128" y="704" type="line"/>
      <point x="141" y="704" type="line" smooth="yes"/>
      <point x="183" y="704"/>
      <point x="213" y="698"/>
      <point x="213" y="664" type="curve" smooth="yes"/>
      <point x="213" y="658"/>
      <point x="211" y="644"/>
      <point x="209" y="636" type="curve"/>
      <point x="92" y="82" type="line" smooth="yes"/>
      <point x="79" y="19"/>
      <point x="39" y="10"/>
      <point x="-6" y="10" type="curve" smooth="yes"/>
      <point x="-19" y="10" type="line"/>
      <point x="-21" y="0" type="line"/>
      <point x="270" y="0" type="line"/>
      <point x="272" y="10" type="line"/>
      <point x="260" y="10" type="line" smooth="yes"/>
      <point x="218" y="10"/>
      <point x="188" y="16"/>
      <point x="188" y="50" type="curve" smooth="yes"/>
      <point x="188" y="56"/>
      <point x="190" y="70"/>
      <point x="192" y="78" type="curve"/>
      <point x="232" y="279" type="line"/>
      <point x="325" y="359" type="line"/>
      <point x="431" y="93" type="line" smooth="yes"/>
      <point x="446" y="55"/>
      <point x="462" y="31"/>
      <point x="492" y="17" type="curve"/>
      <point x="418" y="-46" type="line" smooth="yes"/>
      <point x="398" y="-63"/>
      <point x="380" y="-73"/>
      <point x="362" y="-73" type="curve" smooth="yes"/>
      <point x="345" y="-73"/>
      <point x="327" y="-64"/>
      <point x="308" y="-47" type="curve" smooth="yes"/>
      <point x="299" y="-39" type="line"/>
      <point x="292" y="-46" type="line"/>
    </contour>
  </outline>
</glyph>
<glyph name="afii10095" format="2">
  <advance width="487"/>
  <unicode hex="044D"/>
  <anchor x="182" y="0" name="bottom"/>
  <anchor x="296" y="536" name="top"/>
  <anchor x="-33" y="0" name="topright"/>
  <outline>
    <contour>
      <point x="128" y="278" type="line"/>
      <point x="365" y="278" type="line"/>
      <point x="367" y="288" type="line"/>
      <point x="130" y="288" type="line"/>
    </contour>
    <component base="c" xScale="-1" yScale="-1" xOffset="487" yOffset="536"/>
  </outline>
</glyph>
<glyph name="afii10193" format="2">
  <advance width="599"/>
  <unicode hex="045F"/>
  <anchor x="195" y="-228" name="bottom"/>
  <anchor x="357" y="536" name="top"/>
  <anchor x="637" y="536" name="topright"/>
  <outline>
    <contour>
      <point x="171" y="-228" type="curve" smooth="yes"/>
      <point x="263" y="-228"/>
      <point x="297" y="-174"/>
      <point x="332" y="16" type="curve"/>
      <point x="278" y="-22" type="line"/>
      <point x="249" y="-155"/>
      <point x="200" y="-213"/>
      <point x="143" y="-213" type="curve" smooth="yes"/>
      <point x="118" y="-213"/>
      <point x="102" y="-209"/>
      <point x="88" y="-204" type="curve"/>
      <point x="85" y="-213" type="line"/>
      <point x="102" y="-220"/>
      <point x="134" y="-228"/>
    </contour>
    <component base="u"/>
  </outline>
</glyph>
<glyph name="pokrytiecomb-cy" format="2">
  <unicode hex="0487"/>
  <anchor x="43" y="536" name="_top"/>
  <outline>
    <contour>
      <point x="-71" y="761" type="curve"/>
      <point x="-61" y="761" type="line"/>
      <point x="-50" y="798"/>
      <point x="-16" y="816"/>
      <point x="22" y="816" type="curve" smooth="yes"/>
      <point x="110" y="816"/>
      <point x="154" y="761"/>
      <point x="259" y="761" type="curve" smooth="yes"/>
      <point x="279" y="761" type="line"/>
      <point x="293" y="824" type="line"/>
      <point x="276" y="824" type="line" smooth="yes"/>
      <point x="176" y="824"/>
      <point x="125" y="879"/>
      <point x="47" y="879" type="curve" smooth="yes"/>
      <point x="-17" y="879"/>
      <point x="-52" y="839"/>
    </contour>
  </outline>
</glyph>
<glyph name="uni049E" format="2">
  <advance width="703"/>
  <unicode hex="049E"/>
  <anchor x="293" y="0" name="bottom"/>
  <anchor x="445" y="714" name="top"/>
  <outline>
    <contour>
      <point x="102" y="567" type="line"/>
      <point x="392" y="567" type="line"/>
      <point x="394" y="577" type="line"/>
      <point x="103" y="577" type="line"/>
    </contour>
    <component base="afii10028"/>
  </outline>
</glyph>
<glyph name="uni04B0" format="2">
  <advance width="627"/>
  <unicode hex="04B0"/>
  <anchor x="256" y="0" name="bottom"/>
  <anchor x="408" y="714" name="top"/>
  <anchor x="765" y="714" name="topright"/>
  <outline>
    <contour>
      <point x="112" y="219" type="line"/>
      <point x="493" y="219" type="line"/>
      <point x="495" y="229" type="line"/>
      <point x="114" y="229" type="line"/>
    </contour>
    <component base="Y"/>
  </outline>
</glyph>
<glyph name="uni04B1" format="2">
  <advance width="550"/>
  <unicode hex="04B1"/>
  <anchor x="167" y="-240" name="bottom"/>
  <anchor x="332" y="536" name="top"/>
  <outline>
    <contour>
      <point x="43" y="-27" type="line"/>
      <point x="392" y="-27" type="line"/>
      <point x="394" y="-17" type="line"/>
      <point x="45" y="-17" type="line"/>
    </contour>
    <component base="uni04AF"/>
  </outline>
</glyph>
<glyph name="uni051E" format="2">
  <advance width="703"/>
  <unicode hex="051E"/>
  <anchor x="293" y="0" name="bottom"/>
  <anchor x="445" y="714" name="top"/>
  <outline>
    <contour>
      <point x="584" y="440" type="line"/>
      <point x="591" y="449" type="line"/>
      <point x="382" y="605" type="line"/>
      <point x="376" y="597" type="line"/>
    </contour>
    <component base="afii10028"/>
  </outline>
</glyph>
<glyph name="uni1D7F" format="2">
  <advance width="564"/>
  <unicode hex="1D7F"/>
  <anchor x="236" y="0" name="bottom"/>
  <anchor x="328" y="536" name="top"/>
  <outline>
    <contour>
      <point x="-6" y="271" type="line"/>
      <point x="576" y="271" type="line"/>
      <point x="578" y="281" type="line"/>
      <point x="-4" y="281" type="line"/>
    </contour>
    <component base="uni028A"/>
  </outline>
</glyph>
<glyph name="LL-middleWelsh" format="2">
  <advance width="927"/>
  <unicode hex="1EFA"/>
  <anchor x="402" y="0" name="bottom"/>
  <anchor x="554" y="714" name="top"/>
  <outline>
    <contour>
      <point x="-19" y="0" type="line"/>
      <point x="808" y="0" type="line"/>
      <point x="860" y="215" type="line"/>
      <point x="850" y="215" type="line"/>
      <point x="824" y="140" type="line" smooth="yes"/>
      <point x="804" y="79"/>
      <point x="772" y="10"/>
      <point x="667" y="10" type="curve" smooth="yes"/>
      <point x="470" y="10" type="line"/>
      <point x="603" y="636" type="line" smooth="yes"/>
      <point x="616" y="695"/>
      <point x="654" y="704"/>
      <point x="699" y="704" type="curve" smooth="yes"/>
      <point x="712" y="704" type="line"/>
      <point x="714" y="714" type="line"/>
      <point x="132" y="714" type="line"/>
      <point x="130" y="704" type="line"/>
      <point x="143" y="704" type="line" smooth="yes"/>
      <point x="182" y="704"/>
      <point x="213" y="697"/>
      <point x="213" y="656" type="curve" smooth="yes"/>
      <point x="213" y="649"/>
      <point x="212" y="641"/>
      <point x="210" y="632" type="curve" smooth="yes"/>
      <point x="93" y="82" type="line" smooth="yes"/>
      <point x="79" y="19"/>
      <point x="40" y="10"/>
      <point x="-5" y="10" type="curve" smooth="yes"/>
      <point x="-18" y="10" type="line"/>
    </contour>
    <contour>
      <point x="260" y="10" type="line" smooth="yes"/>
      <point x="222" y="10"/>
      <point x="191" y="17"/>
      <point x="191" y="57" type="curve" smooth="yes"/>
      <point x="191" y="64"/>
      <point x="192" y="72"/>
      <point x="194" y="82" type="curve" smooth="yes"/>
      <point x="311" y="632" type="line" smooth="yes"/>
      <point x="325" y="695"/>
      <point x="363" y="704"/>
      <point x="408" y="704" type="curve" smooth="yes"/>
      <point x="434" y="704" type="line" smooth="yes"/>
      <point x="473" y="704"/>
      <point x="504" y="697"/>
      <point x="504" y="656" type="curve" smooth="yes"/>
      <point x="504" y="649"/>
      <point x="503" y="641"/>
      <point x="501" y="632" type="curve" smooth="yes"/>
      <point x="384" y="82" type="line" smooth="yes"/>
      <point x="370" y="19"/>
      <point x="331" y="10"/>
      <point x="286" y="10" type="curve" smooth="yes"/>
    </contour>
  </outline>
</glyph>
<glyph name="bracketrightwithquill" format="2">
  <advance width="313"/>
  <unicode hex="2046"/>
  <outline>
    <contour>
      <point x="-54" y="-128" type="line"/>
      <point x="169" y="-128" type="line"/>
      <point x="358" y="760" type="line"/>
      <point x="135" y="760" type="line"/>
      <point x="133" y="750" type="line"/>
      <point x="176" y="750" type="line" smooth="yes"/>
      <point x="218" y="750"/>
      <point x="248" y="744"/>
      <point x="248" y="710" type="curve" smooth="yes"/>
      <point x="248" y="704"/>
      <point x="246" y="690"/>
      <point x="244" y="682" type="curve" smooth="yes"/>
      <point x="167" y="321" type="line"/>
      <point x="51" y="321" type="line"/>
      <point x="49" y="311" type="line"/>
      <point x="165" y="311" type="line"/>
      <point x="88" y="-46" type="line" smooth="yes"/>
      <point x="74" y="-109"/>
      <point x="36" y="-118"/>
      <point x="-9" y="-118" type="curve" smooth="yes"/>
      <point x="-52" y="-118" type="line"/>
    </contour>
  </outline>
</glyph>
<glyph name="closeup" format="2">
  <advance width="740"/>
  <unicode hex="2050"/>
  <outline>
    <contour>
      <point x="81" y="532" type="curve"/>
      <point x="91" y="532" type="line"/>
      <point x="142" y="612"/>
      <point x="264" y="671"/>
      <point x="398" y="671" type="curve" smooth="yes"/>
      <point x="532" y="671"/>
      <point x="655" y="612"/>
      <point x="706" y="532" type="curve"/>
      <point x="716" y="532" type="line"/>
      <point x="661" y="648"/>
      <point x="550" y="725"/>
      <point x="398" y="725" type="curve" smooth="yes"/>
      <point x="246" y="725"/>
      <point x="136" y="648"/>
    </contour>
    <contour>
      <point x="398" y="-10" type="curve" smooth="yes"/>
      <point x="550" y="-10"/>
      <point x="661" y="63"/>
      <point x="716" y="180" type="curve"/>
      <point x="706" y="180" type="line"/>
      <point x="655" y="100"/>
      <point x="532" y="44"/>
      <point x="398" y="44" type="curve" smooth="yes"/>
      <point x="264" y="44"/>
      <point x="142" y="100"/>
      <point x="91" y="180" type="curve"/>
      <point x="81" y="180" type="line"/>
      <point x="136" y="63"/>
      <point x="246" y="-10"/>
    </contour>
  </outline>
</glyph>
<glyph name="dottedcross" format="2">
  <advance width="697"/>
  <unicode hex="205C"/>
  <outline>
    <contour>
      <point x="137" y="0" type="curve" smooth="yes"/>
      <point x="168" y="0"/>
      <point x="194" y="15"/>
      <point x="194" y="61" type="curve" smooth="yes"/>
      <point x="194" y="108"/>
      <point x="168" y="122"/>
      <point x="137" y="122" type="curve" smooth="yes"/>
      <point x="105" y="122"/>
      <point x="80" y="108"/>
      <point x="80" y="61" type="curve" smooth="yes"/>
      <point x="80" y="15"/>
      <point x="105" y="0"/>
    </contour>
    <contour>
      <point x="137" y="414" type="curve" smooth="yes"/>
      <point x="168" y="414"/>
      <point x="194" y="429"/>
      <point x="194" y="475" type="curve" smooth="yes"/>
      <point x="194" y="522"/>
      <point x="168" y="536"/>
      <point x="137" y="536" type="curve" smooth="yes"/>
      <point x="105" y="536"/>
      <point x="80" y="522"/>
      <point x="80" y="475" type="curve" smooth="yes"/>
      <point x="80" y="429"/>
      <point x="105" y="414"/>
    </contour>
    <contour>
      <point x="559" y="0" type="curve" smooth="yes"/>
      <point x="590" y="0"/>
      <point x="616" y="15"/>
      <point x="616" y="61" type="curve" smooth="yes"/>
      <point x="616" y="108"/>
      <point x="590" y="122"/>
      <point x="559" y="122" type="curve" smooth="yes"/>
      <point x="527" y="122"/>
      <point x="502" y="108"/>
      <point x="502" y="61" type="curve" smooth="yes"/>
      <point x="502" y="15"/>
      <point x="527" y="0"/>
    </contour>
    <contour>
      <point x="559" y="414" type="curve" smooth="yes"/>
      <point x="590" y="414"/>
      <point x="616" y="429"/>
      <point x="616" y="475" type="curve" smooth="yes"/>
      <point x="616" y="522"/>
      <point x="590" y="536"/>
      <point x="559" y="536" type="curve" smooth="yes"/>
      <point x="527" y="536"/>
      <point x="502" y="522"/>
      <point x="502" y="475" type="curve" smooth="yes"/>
      <point x="502" y="429"/>
      <point x="527" y="414"/>
    </contour>
    <contour>
      <point x="338" y="0" type="line"/>
      <point x="358" y="0" type="line"/>
      <point x="358" y="259" type="line"/>
      <point x="616" y="259" type="line"/>
      <point x="616" y="279" type="line"/>
      <point x="358" y="279" type="line"/>
      <point x="358" y="536" type="line"/>
      <point x="338" y="536" type="line"/>
      <point x="338" y="279" type="line"/>
      <point x="80" y="279" type="line"/>
      <point x="80" y="259" type="line"/>
      <point x="338" y="259" type="line"/>
    </contour>
  </outline>
</glyph>
<glyph name="ninesuperior" format="2">
  <advance width="400"/>
  <unicode hex="2079"/>
  <outline>
    <contour>
      <point x="218" y="378" type="curve" smooth="yes"/>
      <point x="372" y="378"/>
      <point x="436" y="575"/>
      <point x="436" y="674" type="curve" smooth="yes"/>
      <point x="436" y="774"/>
      <point x="381" y="820"/>
      <point x="296" y="820" type="curve" smooth="yes"/>
      <point x="200" y="820"/>
      <point x="130" y="751"/>
      <point x="130" y="656" type="curve" smooth="yes"/>
      <point x="130" y="586"/>
      <point x="172" y="542"/>
      <point x="248" y="542" type="curve" smooth="yes"/>
      <point x="277" y="542"/>
      <point x="308" y="554"/>
      <point x="334" y="573" type="curve"/>
      <point x="299" y="453"/>
      <point x="267" y="388"/>
      <point x="220" y="388" type="curve" smooth="yes"/>
      <point x="181" y="388"/>
      <point x="170" y="427"/>
      <point x="170" y="494" type="curve"/>
      <point x="130" y="494"/>
      <point x="109" y="470"/>
      <point x="109" y="445" type="curve" smooth="yes"/>
      <point x="109" y="408"/>
      <point x="145" y="378"/>
    </contour>
    <contour>
      <point x="275" y="562" type="curve" smooth="yes"/>
      <point x="244" y="562"/>
      <point x="220" y="587"/>
      <point x="220" y="657" type="curve" smooth="yes"/>
      <point x="220" y="723"/>
      <point x="239" y="810"/>
      <point x="296" y="810" type="curve" smooth="yes"/>
      <point x="330" y="810"/>
      <point x="350" y="776"/>
      <point x="350" y="697" type="curve" smooth="yes"/>
      <point x="350" y="663"/>
      <point x="347" y="629"/>
      <point x="339" y="588" type="curve"/>
      <point x="329" y="579"/>
      <point x="305" y="562"/>
    </contour>
  </outline>
</glyph>
<glyph name="uni20A5" format="2">
  <advance width="894"/>
  <unicode hex="20A5"/>
  <anchor x="393" y="0" name="bottom"/>
  <anchor x="507" y="536" name="top"/>
  <anchor x="935" y="536" name="topright"/>
  <outline>
    <contour>
      <point x="232" y="-110" type="line"/>
      <point x="242" y="-110" type="line"/>
      <point x="681" y="666" type="line"/>
      <point x="671" y="666" type="line"/>
    </contour>
    <component base="m"/>
  </outline>
</glyph>
<glyph name="servicemark" format="2">
  <advance width="841"/>
  <unicode hex="2120"/>
  <outline>
    <contour>
      <point x="424" y="368" type="line"/>
      <point x="523" y="368" type="line"/>
      <point x="523" y="378" type="line"/>
      <point x="497" y="378"/>
      <point x="483" y="382"/>
      <point x="483" y="409" type="curve" smooth="yes"/>
      <point x="483" y="673" type="line"/>
      <point x="606" y="368" type="line"/>
      <point x="641" y="368" type="line"/>
      <point x="754" y="677" type="line"/>
      <point x="754" y="406" type="line" smooth="yes"/>
      <point x="754" y="383"/>
      <point x="738" y="378"/>
      <point x="715" y="378" type="curve"/>
      <point x="715" y="368" type="line"/>
      <point x="863" y="368" type="line"/>
      <point x="863" y="378" type="line"/>
      <point x="852" y="378" type="line" smooth="yes"/>
      <point x="830" y="378"/>
      <point x="814" y="382"/>
      <point x="814" y="409" type="curve" smooth="yes"/>
      <point x="814" y="674" type="line" smooth="yes"/>
      <point x="814" y="701"/>
      <point x="830" y="704"/>
      <point x="852" y="704" type="curve" smooth="yes"/>
      <point x="863" y="704" type="line"/>
      <point x="863" y="714" type="line"/>
      <point x="755" y="714" type="line"/>
      <point x="647" y="414" type="line"/>
      <point x="527" y="714" type="line"/>
      <point x="412" y="714" type="line"/>
      <point x="412" y="704" type="line"/>
      <point x="422" y="704" type="line" smooth="yes"/>
      <point x="442" y="704"/>
      <point x="473" y="700"/>
      <point x="473" y="675" type="curve" smooth="yes"/>
      <point x="473" y="407" type="line" smooth="yes"/>
      <point x="473" y="383"/>
      <point x="454" y="378"/>
      <point x="434" y="378" type="curve" smooth="yes"/>
      <point x="424" y="378" type="line"/>
    </contour>
    <contour>
      <point x="240" y="359" type="curve" smooth="yes"/>
      <point x="326" y="359"/>
      <point x="374" y="396"/>
      <point x="374" y="459" type="curve" smooth="yes"/>
      <point x="374" y="517"/>
      <point x="333" y="542"/>
      <point x="267" y="568" type="curve" smooth="yes"/>
      <point x="208" y="591"/>
      <point x="184" y="601"/>
      <point x="184" y="637" type="curve" smooth="yes"/>
      <point x="184" y="692"/>
      <point x="206" y="712"/>
      <point x="243" y="712" type="curve" smooth="yes"/>
      <point x="293" y="712"/>
      <point x="311" y="675"/>
      <point x="311" y="623" type="curve"/>
      <point x="339" y="623"/>
      <point x="364" y="635"/>
      <point x="364" y="660" type="curve" smooth="yes"/>
      <point x="364" y="695"/>
      <point x="317" y="722"/>
      <point x="249" y="722" type="curve" smooth="yes"/>
      <point x="174" y="722"/>
      <point x="127" y="689"/>
      <point x="127" y="626" type="curve" smooth="yes"/>
      <point x="127" y="567"/>
      <point x="168" y="542"/>
      <point x="230" y="517" type="curve" smooth="yes"/>
      <point x="292" y="492"/>
      <point x="315" y="482"/>
      <point x="315" y="447" type="curve" smooth="yes"/>
      <point x="315" y="390"/>
      <point x="288" y="369"/>
      <point x="246" y="369" type="curve" smooth="yes"/>
      <point x="192" y="369"/>
      <point x="171" y="406"/>
      <point x="171" y="471" type="curve"/>
      <point x="143" y="471"/>
      <point x="120" y="454"/>
      <point x="120" y="426" type="curve" smooth="yes"/>
      <point x="120" y="388"/>
      <point x="164" y="359"/>
    </contour>
  </outline>
</glyph>
<glyph name="trademark" format="2">
  <advance width="835"/>
  <unicode hex="2122"/>
  <outline>
    <contour>
      <point x="418" y="368" type="line"/>
      <point x="517" y="368" type="line"/>
      <point x="517" y="378" type="line"/>
      <point x="491" y="378"/>
      <point x="477" y="382"/>
      <point x="477" y="409" type="curve" smooth="yes"/>
      <point x="477" y="673" type="line"/>
      <point x="600" y="368" type="line"/>
      <point x="635" y="368" type="line"/>
      <point x="748" y="677" type="line"/>
      <point x="748" y="406" type="line" smooth="yes"/>
      <point x="748" y="383"/>
      <point x="732" y="378"/>
      <point x="709" y="378" type="curve"/>
      <point x="709" y="368" type="line"/>
      <point x="857" y="368" type="line"/>
      <point x="857" y="378" type="line"/>
      <point x="846" y="378" type="line" smooth="yes"/>
      <point x="824" y="378"/>
      <point x="808" y="382"/>
      <point x="808" y="409" type="curve" smooth="yes"/>
      <point x="808" y="674" type="line" smooth="yes"/>
      <point x="808" y="701"/>
      <point x="824" y="704"/>
      <point x="846" y="704" type="curve" smooth="yes"/>
      <point x="857" y="704" type="line"/>
      <point x="857" y="714" type="line"/>
      <point x="749" y="714" type="line"/>
      <point x="641" y="414" type="line"/>
      <point x="521" y="714" type="line"/>
      <point x="406" y="714" type="line"/>
      <point x="406" y="704" type="line"/>
      <point x="416" y="704" type="line" smooth="yes"/>
      <point x="436" y="704"/>
      <point x="467" y="700"/>
      <point x="467" y="675" type="curve" smooth="yes"/>
      <point x="467" y="407" type="line" smooth="yes"/>
      <point x="467" y="383"/>
      <point x="448" y="378"/>
      <point x="428" y="378" type="curve" smooth="yes"/>
      <point x="418" y="378" type="line"/>
    </contour>
    <contour>
      <point x="154" y="368" type="line"/>
      <point x="324" y="368" type="line"/>
      <point x="324" y="378" type="line"/>
      <point x="308" y="378" type="line" smooth="yes"/>
      <point x="288" y="378"/>
      <point x="270" y="383"/>
      <point x="270" y="410" type="curve" smooth="yes"/>
      <point x="270" y="704" type="line"/>
      <point x="297" y="704" type="line" smooth="yes"/>
      <point x="352" y="704"/>
      <point x="371" y="690"/>
      <point x="376" y="646" type="curve" smooth="yes"/>
      <point x="379" y="623" type="line"/>
      <point x="389" y="623" type="line"/>
      <point x="386" y="714" type="line"/>
      <point x="94" y="714" type="line"/>
      <point x="91" y="623" type="line"/>
      <point x="101" y="623" type="line"/>
      <point x="103" y="647" type="line" smooth="yes"/>
      <point x="106" y="690"/>
      <point x="124" y="704"/>
      <point x="176" y="704" type="curve" smooth="yes"/>
      <point x="208" y="704" type="line"/>
      <point x="208" y="406" type="line" smooth="yes"/>
      <point x="208" y="382"/>
      <point x="191" y="378"/>
      <point x="171" y="378" type="curve" smooth="yes"/>
      <point x="154" y="378" type="line"/>
    </contour>
  </outline>
</glyph>
<glyph name="uniA73B" format="2">
  <advance width="815"/>
  <unicode hex="A73B"/>
  <anchor x="360" y="0" name="bottom"/>
  <anchor x="478" y="544" name="top"/>
  <outline>
    <contour>
      <point x="435" y="286" type="line"/>
      <point x="814" y="286" type="line"/>
      <point x="814" y="296" type="line"/>
      <point x="442" y="296" type="line"/>
    </contour>
    <component base="uniA739"/>
  </outline>
</glyph>
<glyph name="uniA751" format="2">
  <advance width="578"/>
  <unicode hex="A751"/>
  <anchor x="71" y="-240" name="bottom"/>
  <anchor x="346" y="536" name="top"/>
  <anchor x="595" y="536" name="topright"/>
  <outline>
    <contour>
      <point x="-70" y="-99" type="line"/>
      <point x="243" y="-99" type="line"/>
      <point x="245" y="-89" type="line"/>
      <point x="-68" y="-89" type="line"/>
    </contour>
    <component base="p"/>
  </outline>
</glyph>
<glyph name="uniA757" format="2">
  <advance width="560"/>
  <unicode hex="A757"/>
  <anchor x="162" y="-240" name="bottom"/>
  <anchor x="327" y="536" name="top"/>
  <anchor x="587" y="536" name="topright"/>
  <outline>
    <contour>
      <point x="183" y="-100" type="line"/>
      <point x="497" y="-100" type="line"/>
      <point x="499" y="-90" type="line"/>
      <point x="185" y="-90" type="line"/>
    </contour>
    <component base="q"/>
  </outline>
</glyph>
<glyph name="uniA764" format="2">
  <advance width="617"/>
  <unicode hex="A764"/>
  <outline>
    <contour>
      <point x="-20" y="0" type="line"/>
      <point x="280" y="0" type="line"/>
      <point x="282" y="10" type="line"/>
      <point x="259" y="10" type="line" smooth="yes"/>
      <point x="217" y="10"/>
      <point x="187" y="16"/>
      <point x="187" y="50" type="curve" smooth="yes"/>
      <point x="187" y="56"/>
      <point x="189" y="70"/>
      <point x="191" y="78" type="curve" smooth="yes"/>
      <point x="207" y="154" type="line"/>
      <point x="281" y="154" type="line" smooth="yes"/>
      <point x="538" y="154"/>
      <point x="579" y="282"/>
      <point x="579" y="358" type="curve" smooth="yes"/>
      <point x="579" y="484"/>
      <point x="486" y="529"/>
      <point x="346" y="529" type="curve" smooth="yes"/>
      <point x="287" y="529" type="line"/>
      <point x="303" y="607" type="line"/>
      <point x="408" y="607" type="line"/>
      <point x="410" y="617" type="line"/>
      <point x="305" y="617" type="line"/>
      <point x="318" y="689"/>
      <point x="352" y="704"/>
      <point x="406" y="704" type="curve" smooth="yes"/>
      <point x="429" y="704" type="line"/>
      <point x="431" y="714" type="line"/>
      <point x="130" y="714" type="line"/>
      <point x="128" y="704" type="line"/>
      <point x="141" y="704" type="line" smooth="yes"/>
      <point x="183" y="704"/>
      <point x="208" y="689"/>
      <point x="208" y="646" type="curve" smooth="yes"/>
      <point x="208" y="637"/>
      <point x="207" y="628"/>
      <point x="205" y="617" type="curve"/>
      <point x="109" y="617" type="line"/>
      <point x="107" y="607" type="line"/>
      <point x="203" y="607" type="line"/>
      <point x="91" y="82" type="line" smooth="yes"/>
      <point x="78" y="19"/>
      <point x="39" y="10"/>
      <point x="-5" y="10" type="curve" smooth="yes"/>
      <point x="-18" y="10" type="line"/>
    </contour>
    <contour>
      <point x="209" y="164" type="line"/>
      <point x="284" y="519" type="line"/>
      <point x="330" y="519" type="line" smooth="yes"/>
      <point x="419" y="519"/>
      <point x="473" y="484"/>
      <point x="473" y="358" type="curve" smooth="yes"/>
      <point x="473" y="215"/>
      <point x="424" y="164"/>
      <point x="262" y="164" type="curve" smooth="yes"/>
    </contour>
  </outline>
</glyph>
<glyph name="uniAB33" format="2">
  <advance width="493"/>
  <unicode hex="AB33"/>
  <anchor x="205" y="0" name="bottom"/>
  <anchor x="319" y="536" name="top"/>
  <anchor x="525" y="536" name="topright"/>
  <outline>
    <contour>
      <point x="-9" y="171" type="line"/>
      <point x="326" y="171" type="line"/>
      <point x="327" y="181" type="line"/>
      <point x="-8" y="181" type="line"/>
    </contour>
    <component base="e"/>
  </outline>
</glyph>
<glyph name="uniAB41" format="2">
  <advance width="880"/>
  <unicode hex="AB41"/>
  <anchor x="454" y="536" name="bottom"/>
  <anchor x="380" y="0" name="top"/>
  <outline>
    <contour>
      <point x="356" y="-40" type="line"/>
      <point x="368" y="-40" type="line"/>
      <point x="821" y="576" type="line"/>
      <point x="809" y="576" type="line"/>
    </contour>
    <component base="oe" xScale="-1" yScale="-1" xOffset="874" yOffset="536"/>
  </outline>
</glyph>
<glyph name="fl" format="2">
  <advance width="592"/>
  <unicode hex="FB02"/>
  <anchor x="-82" y="-240" name="bottom"/>
  <anchor x="-29" y="-240" name="bottom_1"/>
  <anchor x="443" y="-10" name="bottom_2"/>
  <anchor x="247" y="0" name="caret_1"/>
  <anchor x="404" y="770" name="top"/>
  <anchor x="370" y="770" name="top_1"/>
  <anchor x="537" y="770" name="top_2"/>
  <outline>
    <contour>
      <point x="-82" y="-240" type="curve" smooth="yes"/>
      <point x="26" y="-240"/>
      <point x="97" y="-185"/>
      <point x="135" y="-8" type="curve" smooth="yes"/>
      <point x="249" y="526" type="line"/>
      <point x="360" y="526" type="line"/>
      <point x="362" y="536" type="line"/>
      <point x="251" y="536" type="line"/>
      <point x="264" y="600" type="line" smooth="yes"/>
      <point x="286" y="708"/>
      <point x="321" y="760"/>
      <point x="389" y="760" type="curve" smooth="yes"/>
      <point x="437" y="760"/>
      <point x="477" y="730"/>
      <point x="476" y="677" type="curve"/>
      <point x="384" y="242" type="line" smooth="yes"/>
      <point x="376" y="203"/>
      <point x="362" y="134"/>
      <point x="362" y="91" type="curve" smooth="yes"/>
      <point x="362" y="33"/>
      <point x="392" y="-10"/>
      <point x="445" y="-10" type="curve" smooth="yes"/>
      <point x="495" y="-10"/>
      <point x="551" y="24"/>
      <point x="580" y="50" type="curve"/>
      <point x="575" y="59" type="line"/>
      <point x="547" y="42"/>
      <point x="525" y="31"/>
      <point x="500" y="31" type="curve" smooth="yes"/>
      <point x="468" y="31"/>
      <point x="456" y="55"/>
      <point x="456" y="103" type="curve" smooth="yes"/>
      <point x="456" y="130"/>
      <point x="467" y="193"/>
      <point x="472" y="215" type="curve" smooth="yes"/>
      <point x="588" y="760" type="line"/>
      <point x="566" y="760" type="line"/>
      <point x="496" y="745" type="line"/>
      <point x="472" y="759"/>
      <point x="431" y="770"/>
      <point x="398" y="770" type="curve" smooth="yes"/>
      <point x="266" y="770"/>
      <point x="197" y="704"/>
      <point x="170" y="591" type="curve" smooth="yes"/>
      <point x="157" y="536" type="line"/>
      <point x="65" y="532" type="line"/>
      <point x="64" y="526" type="line"/>
      <point x="156" y="526" type="line"/>
      <point x="41" y="-9" type="line" smooth="yes"/>
      <point x="7" y="-166"/>
      <point x="-23" y="-229"/>
      <point x="-92" y="-229" type="curve" smooth="yes"/>
      <point x="-107" y="-229"/>
      <point x="-127" y="-225"/>
      <point x="-138" y="-222" type="curve"/>
      <point x="-140" y="-232" type="line"/>
      <point x="-127" y="-236"/>
      <point x="-102" y="-240"/>
    </contour>
  </outline>
</glyph>
<glyph name="s_t" format="2">
  <advance width="808"/>
  <unicode hex="FB06"/>
  <anchor x="175" y="0" name="bottom"/>
  <anchor x="682" y="268" name="center"/>
  <anchor x="289" y="536" name="top"/>
  <anchor x="868" y="659" name="topright"/>
  <outline>
    <contour>
      <point x="624" y="-10" type="curve" smooth="yes"/>
      <point x="674" y="-10"/>
      <point x="719" y="10"/>
      <point x="759" y="38" type="curve"/>
      <point x="754" y="47" type="line"/>
      <point x="733" y="34"/>
      <point x="701" y="24"/>
      <point x="676" y="24" type="curve" smooth="yes"/>
      <point x="632" y="24"/>
      <point x="607" y="48"/>
      <point x="607" y="108" type="curve" smooth="yes"/>
      <point x="607" y="129"/>
      <point x="612" y="161"/>
      <point x="619" y="194" type="curve" smooth="yes"/>
      <point x="690" y="526" type="line"/>
      <point x="811" y="526" type="line"/>
      <point x="813" y="536" type="line"/>
      <point x="692" y="536" type="line"/>
      <point x="701" y="575" type="line" smooth="yes"/>
      <point x="706" y="601"/>
      <point x="710" y="622"/>
      <point x="710" y="640" type="curve" smooth="yes"/>
      <point x="710" y="711"/>
      <point x="650" y="770"/>
      <point x="525" y="770" type="curve" smooth="yes"/>
      <point x="436" y="770"/>
      <point x="321" y="733"/>
      <point x="321" y="612" type="curve" smooth="yes"/>
      <point x="321" y="540"/>
      <point x="366" y="472"/>
      <point x="385" y="450" type="curve"/>
      <point x="437" y="450" type="line"/>
      <point x="437" y="502"/>
      <point x="405" y="543"/>
      <point x="405" y="619" type="curve" smooth="yes"/>
      <point x="405" y="713"/>
      <point x="450" y="760"/>
      <point x="525" y="760" type="curve" smooth="yes"/>
      <point x="598" y="760"/>
      <point x="625" y="718"/>
      <point x="625" y="652" type="curve" smooth="yes"/>
      <point x="625" y="607"/>
      <point x="612" y="579"/>
      <point x="595" y="562" type="curve" smooth="yes"/>
      <point x="576" y="543"/>
      <point x="551" y="536"/>
      <point x="522" y="536" type="curve"/>
      <point x="520" y="526" type="line"/>
      <point x="596" y="526" type="line"/>
      <point x="525" y="191" type="line" smooth="yes"/>
      <point x="520" y="166"/>
      <point x="515" y="131"/>
      <point x="515" y="107" type="curve" smooth="yes"/>
      <point x="515" y="28"/>
      <point x="552" y="-10"/>
    </contour>
    <contour>
      <point x="190" y="-10" type="curve" smooth="yes"/>
      <point x="318" y="-10"/>
      <point x="397" y="58"/>
      <point x="397" y="155" type="curve" smooth="yes"/>
      <point x="397" y="232"/>
      <point x="350" y="277"/>
      <point x="277" y="310" type="curve" smooth="yes"/>
      <point x="207" y="342"/>
      <point x="175" y="368"/>
      <point x="175" y="430" type="curve" smooth="yes"/>
      <point x="175" y="484"/>
      <point x="200" y="535"/>
      <point x="274" y="535" type="curve" smooth="yes"/>
      <point x="339" y="535"/>
      <point x="364" y="483"/>
      <point x="364" y="418" type="curve" smooth="yes"/>
      <point x="364" y="408"/>
      <point x="363" y="398"/>
      <point x="362" y="388" type="curve"/>
      <point x="405" y="388"/>
      <point x="437" y="408"/>
      <point x="437" y="450" type="curve" smooth="yes"/>
      <point x="437" y="496"/>
      <point x="390" y="545"/>
      <point x="281" y="545" type="curve" smooth="yes"/>
      <point x="163" y="545"/>
      <point x="88" y="482"/>
      <point x="88" y="396" type="curve" smooth="yes"/>
      <point x="88" y="316"/>
      <point x="135" y="276"/>
      <point x="209" y="241" type="curve" smooth="yes"/>
      <point x="282" y="207"/>
      <point x="310" y="178"/>
      <point x="310" y="116" type="curve" smooth="yes"/>
      <point x="310" y="44"/>
      <point x="265" y="0"/>
      <point x="194" y="0" type="curve" smooth="yes"/>
      <point x="122" y="0"/>
      <point x="92" y="61"/>
      <point x="92" y="137" type="curve" smooth="yes"/>
      <point x="92" y="147"/>
      <point x="93" y="158"/>
      <point x="94" y="169" type="curve"/>
      <point x="70" y="169"/>
      <point x="25" y="157"/>
      <point x="25" y="103" type="curve" smooth="yes"/>
      <point x="25" y="33"/>
      <point x="90" y="-10"/>
    </contour>
  </outline>
</glyph>
<glyph name="uniFE20" format="2">
  <unicode hex="FE20"/>
  <anchor x="57" y="536" name="_top"/>
  <outline>
    <contour>
      <point x="-322" y="595" type="curve"/>
      <point x="-312" y="595" type="line"/>
      <point x="-226" y="665"/>
      <point x="-88" y="711"/>
      <point x="95" y="711" type="curve"/>
      <point x="108" y="771" type="line"/>
      <point x="-100" y="771"/>
      <point x="-218" y="709"/>
    </contour>
  </outline>
</glyph>
<glyph name="ae.sc" format="2">
  <advance width="790"/>
  <anchor x="319" y="0" name="bottom"/>
  <anchor x="591" y="571" name="top"/>
  <outline>
    <contour>
      <point x="-58" y="0" type="line"/>
      <point x="111" y="0" type="line"/>
      <point x="113" y="10" type="line"/>
      <point x="86" y="10" type="line" smooth="yes"/>
      <point x="56" y="10"/>
      <point x="43" y="18"/>
      <point x="43" y="35" type="curve" smooth="yes"/>
      <point x="43" y="47"/>
      <point x="51" y="62"/>
      <point x="66" y="84" type="curve" smooth="yes"/>
      <point x="148" y="204" type="line"/>
      <point x="363" y="204" type="line"/>
      <point x="334" y="61" type="line" smooth="yes"/>
      <point x="325" y="16"/>
      <point x="291" y="10"/>
      <point x="255" y="10" type="curve" smooth="yes"/>
      <point x="244" y="10" type="line"/>
      <point x="242" y="0" type="line"/>
      <point x="692" y="0" type="line"/>
      <point x="729" y="144" type="line"/>
      <point x="719" y="144" type="line"/>
      <point x="698" y="75" type="line" smooth="yes"/>
      <point x="685" y="33"/>
      <point x="657" y="10"/>
      <point x="605" y="10" type="curve" smooth="yes"/>
      <point x="421" y="10" type="line"/>
      <point x="482" y="294" type="line"/>
      <point x="676" y="294" type="line"/>
      <point x="678" y="304" type="line"/>
      <point x="484" y="304" type="line"/>
      <point x="540" y="561" type="line"/>
      <point x="706" y="561" type="line" smooth="yes"/>
      <point x="748" y="561"/>
      <point x="764" y="537"/>
      <point x="764" y="507" type="curve" smooth="yes"/>
      <point x="764" y="493"/>
      <point x="761" y="468"/>
      <point x="753" y="428" type="curve"/>
      <point x="763" y="428" type="line"/>
      <point x="790" y="571" type="line"/>
      <point x="318" y="571" type="line"/>
      <point x="316" y="561" type="line"/>
      <point x="382" y="561" type="line"/>
      <point x="43" y="73" type="line" smooth="yes"/>
      <point x="9" y="24"/>
      <point x="-12" y="10"/>
      <point x="-42" y="10" type="curve" smooth="yes"/>
      <point x="-56" y="10" type="line"/>
    </contour>
    <contour>
      <point x="156" y="214" type="line"/>
      <point x="302" y="426" type="line" smooth="yes"/>
      <point x="337" y="477"/>
      <point x="365" y="518"/>
      <point x="395" y="561" type="curve"/>
      <point x="440" y="561" type="line"/>
      <point x="365" y="214" type="line"/>
    </contour>
  </outline>
</glyph>
<glyph name="commaaccentrotate" format="2">
  <advance width="311"/>
  <outline>
    <contour>
      <point x="173" y="606" type="line"/>
      <point x="248" y="606" type="line"/>
      <point x="267" y="658"/>
      <point x="286" y="701"/>
      <point x="314" y="752" type="curve"/>
      <point x="317" y="766" type="line"/>
      <point x="307" y="766" type="line"/>
      <point x="257" y="717"/>
      <point x="205" y="658"/>
      <point x="175" y="616" type="curve"/>
    </contour>
  </outline>
</glyph>
<glyph name="f.ss02" format="2">
  <advance width="317"/>
  <anchor x="87" y="0" name="bottom"/>
  <anchor x="350" y="770" name="top"/>
  <anchor x="499" y="770" name="topright"/>
  <outline>
    <contour>
      <point x="37" y="0" type="line"/>
      <point x="131" y="0" type="line"/>
      <point x="243" y="526" type="line"/>
      <point x="354" y="526" type="line"/>
      <point x="356" y="536" type="line"/>
      <point x="245" y="536" type="line"/>
      <point x="258" y="600" type="line" smooth="yes"/>
      <point x="282" y="717"/>
      <point x="300" y="760"/>
      <point x="350" y="760" type="curve" smooth="yes"/>
      <point x="391" y="760"/>
      <point x="399" y="702"/>
      <point x="398" y="631" type="curve"/>
      <point x="451" y="631"/>
      <point x="481" y="652"/>
      <point x="481" y="696" type="curve" smooth="yes"/>
      <point x="481" y="740"/>
      <point x="437" y="770"/>
      <point x="352" y="770" type="curve" smooth="yes"/>
      <point x="242" y="770"/>
      <point x="184" y="705"/>
      <point x="162" y="591" type="curve" smooth="yes"/>
      <point x="151" y="536" type="line"/>
      <point x="59" y="532" type="line"/>
      <point x="58" y="526" type="line"/>
      <point x="150" y="526" type="line"/>
    </contour>
  </outline>
</glyph>
<glyph name="f_f_i.ss02" format="2">
  <advance width="887"/>
  <anchor x="375" y="0" name="bottom"/>
  <anchor x="87" y="0" name="bottom_1"/>
  <anchor x="377" y="0" name="bottom_2"/>
  <anchor x="730" y="-10" name="bottom_3"/>
  <anchor x="231" y="0" name="caret_1"/>
  <anchor x="538" y="0" name="caret_2"/>
  <anchor x="547" y="770" name="top"/>
  <anchor x="335" y="770" name="top_1"/>
  <anchor x="644" y="770" name="top_2"/>
  <anchor x="785" y="548" name="top_3"/>
  <outline>
    <contour>
      <point x="37" y="0" type="line"/>
      <point x="131" y="0" type="line"/>
      <point x="243" y="526" type="line"/>
      <point x="477" y="526" type="line"/>
      <point x="478" y="536" type="line"/>
      <point x="245" y="536" type="line"/>
      <point x="252" y="569" type="line" smooth="yes"/>
      <point x="278" y="693"/>
      <point x="299" y="745"/>
      <point x="348" y="745" type="curve" smooth="yes"/>
      <point x="396" y="745"/>
      <point x="398" y="681"/>
      <point x="398" y="639" type="curve"/>
      <point x="445" y="639"/>
      <point x="468" y="661"/>
      <point x="468" y="696" type="curve" smooth="yes"/>
      <point x="468" y="727"/>
      <point x="439" y="755"/>
      <point x="354" y="755" type="curve" smooth="yes"/>
      <point x="248" y="755"/>
      <point x="185" y="689"/>
      <point x="157" y="559" type="curve" smooth="yes"/>
      <point x="152" y="536" type="line"/>
      <point x="59" y="532" type="line"/>
      <point x="58" y="526" type="line"/>
      <point x="150" y="526" type="line"/>
    </contour>
    <component base="f_i.ss02" xOffset="297"/>
  </outline>
</glyph>
<glyph name="five.lf" format="2">
  <advance width="543"/>
  <outline>
    <contour>
      <point x="185" y="-10" type="curve" smooth="yes"/>
      <point x="362" y="-10"/>
      <point x="469" y="99"/>
      <point x="469" y="243" type="curve" smooth="yes"/>
      <point x="469" y="362"/>
      <point x="387" y="427"/>
      <point x="259" y="427" type="curve" smooth="yes"/>
      <point x="214" y="427"/>
      <point x="156" y="409"/>
      <point x="108" y="368" type="curve"/>
      <point x="187" y="634" type="line"/>
      <point x="455" y="634" type="line" smooth="yes"/>
      <point x="491" y="634"/>
      <point x="502" y="624"/>
      <point x="502" y="610" type="curve" smooth="yes"/>
      <point x="502" y="602"/>
      <point x="500" y="580"/>
      <point x="498" y="563" type="curve"/>
      <point x="508" y="563" type="line"/>
      <point x="535" y="714" type="line"/>
      <point x="201" y="714" type="line"/>
      <point x="94" y="357" type="line"/>
      <point x="105" y="355" type="line"/>
      <point x="159" y="400"/>
      <point x="211" y="416"/>
      <point x="253" y="416" type="curve" smooth="yes"/>
      <point x="341" y="416"/>
      <point x="365" y="347"/>
      <point x="365" y="250" type="curve" smooth="yes"/>
      <point x="365" y="78"/>
      <point x="293" y="0"/>
      <point x="188" y="0" type="curve" smooth="yes"/>
      <point x="106" y="0"/>
      <point x="85" y="61"/>
      <point x="85" y="152" type="curve"/>
      <point x="33" y="152"/>
      <point x="10" y="127"/>
      <point x="10" y="90" type="curve" smooth="yes"/>
      <point x="10" y="35"/>
      <point x="56" y="-10"/>
    </contour>
  </outline>
</glyph>
<glyph name="j.sc" format="2">
  <advance width="285"/>
  <anchor x="-89" y="-192" name="bottom"/>
  <anchor x="196" y="571" name="top"/>
  <anchor x="318" y="571" name="topright"/>
  <outline>
    <contour>
      <point x="-89" y="-192" type="curve" smooth="yes"/>
      <point x="22" y="-192"/>
      <point x="98" y="-133"/>
      <point x="126" y="-5" type="curve" smooth="yes"/>
      <point x="237" y="507" type="line" smooth="yes"/>
      <point x="247" y="554"/>
      <point x="280" y="561"/>
      <point x="316" y="561" type="curve" smooth="yes"/>
      <point x="327" y="561" type="line"/>
      <point x="329" y="571" type="line"/>
      <point x="75" y="571" type="line"/>
      <point x="73" y="561" type="line"/>
      <point x="84" y="561" type="line" smooth="yes"/>
      <point x="118" y="561"/>
      <point x="143" y="557"/>
      <point x="143" y="531" type="curve" smooth="yes"/>
      <point x="143" y="527"/>
      <point x="141" y="516"/>
      <point x="140" y="510" type="curve" smooth="yes"/>
      <point x="27" y="-6" type="line" smooth="yes"/>
      <point x="-4" y="-147"/>
      <point x="-35" y="-182"/>
      <point x="-91" y="-182" type="curve" smooth="yes"/>
      <point x="-117" y="-182"/>
      <point x="-139" y="-178"/>
      <point x="-153" y="-173" type="curve"/>
      <point x="-156" y="-183" type="line"/>
      <point x="-136" y="-189"/>
      <point x="-118" y="-192"/>
    </contour>
  </outline>
</glyph>
<glyph name="thorn.sc" format="2">
  <advance width="516"/>
  <anchor x="191" y="0" name="bottom"/>
  <anchor x="313" y="571" name="top"/>
  <outline>
    <contour>
      <point x="-17" y="0" type="line"/>
      <point x="252" y="0" type="line"/>
      <point x="254" y="10" type="line"/>
      <point x="227" y="10" type="line" smooth="yes"/>
      <point x="193" y="10"/>
      <point x="168" y="15"/>
      <point x="168" y="40" type="curve" smooth="yes"/>
      <point x="168" y="45"/>
      <point x="170" y="55"/>
      <point x="171" y="61" type="curve"/>
      <point x="184" y="125" type="line"/>
      <point x="244" y="125" type="line" smooth="yes"/>
      <point x="400" y="125"/>
      <point x="493" y="180"/>
      <point x="493" y="310" type="curve" smooth="yes"/>
      <point x="493" y="434"/>
      <point x="395" y="465"/>
      <point x="298" y="465" type="curve" smooth="yes"/>
      <point x="257" y="465" type="line"/>
      <point x="266" y="507" type="line" smooth="yes"/>
      <point x="276" y="554"/>
      <point x="308" y="561"/>
      <point x="345" y="561" type="curve" smooth="yes"/>
      <point x="357" y="561" type="line"/>
      <point x="359" y="571" type="line"/>
      <point x="104" y="571" type="line"/>
      <point x="102" y="561" type="line"/>
      <point x="113" y="561" type="line" smooth="yes"/>
      <point x="147" y="561"/>
      <point x="172" y="557"/>
      <point x="172" y="531" type="curve" smooth="yes"/>
      <point x="172" y="527"/>
      <point x="170" y="517"/>
      <point x="168" y="507" type="curve" smooth="yes"/>
      <point x="73" y="63" type="line" smooth="yes"/>
      <point x="63" y="17"/>
      <point x="31" y="10"/>
      <point x="-4" y="10" type="curve" smooth="yes"/>
      <point x="-15" y="10" type="line"/>
    </contour>
    <contour>
      <point x="186" y="135" type="line"/>
      <point x="255" y="455" type="line"/>
      <point x="286" y="455" type="line" smooth="yes"/>
      <point x="346" y="455"/>
      <point x="390" y="426"/>
      <point x="390" y="309" type="curve" smooth="yes"/>
      <point x="390" y="190"/>
      <point x="337" y="135"/>
      <point x="240" y="135" type="curve" smooth="yes"/>
    </contour>
  </outline>
</glyph>
<glyph name="y.sc" format="2">
  <advance width="536"/>
  <anchor x="195" y="0" name="bottom"/>
  <anchor x="317" y="571" name="top"/>
  <anchor x="563" y="571" name="topright"/>
  <outline>
    <contour>
      <point x="74" y="0" type="line"/>
      <point x="346" y="0" type="line"/>
      <point x="348" y="10" type="line"/>
      <point x="329" y="10" type="line" smooth="yes"/>
      <point x="294" y="10"/>
      <point x="269" y="15"/>
      <point x="269" y="40" type="curve" smooth="yes"/>
      <point x="269" y="45"/>
      <point x="272" y="55"/>
      <point x="273" y="61" type="curve" smooth="yes"/>
      <point x="308" y="220" type="line"/>
      <point x="510" y="504" type="line" smooth="yes"/>
      <point x="539" y="545"/>
      <point x="558" y="561"/>
      <point x="582" y="561" type="curve" smooth="yes"/>
      <point x="598" y="561" type="line"/>
      <point x="600" y="571" type="line"/>
      <point x="435" y="571" type="line"/>
      <point x="433" y="561" type="line"/>
      <point x="459" y="561" type="line" smooth="yes"/>
      <point x="490" y="561"/>
      <point x="502" y="552"/>
      <point x="502" y="536" type="curve" smooth="yes"/>
      <point x="502" y="521"/>
      <point x="493" y="501"/>
      <point x="476" y="477" type="curve" smooth="yes"/>
      <point x="359" y="312" type="line" smooth="yes"/>
      <point x="331" y="273"/>
      <point x="311" y="246"/>
      <point x="300" y="225" type="curve"/>
      <point x="296" y="251"/>
      <point x="285" y="290"/>
      <point x="277" y="322" type="curve" smooth="yes"/>
      <point x="233" y="490" type="line" smooth="yes"/>
      <point x="228" y="511"/>
      <point x="226" y="523"/>
      <point x="226" y="537" type="curve" smooth="yes"/>
      <point x="226" y="551"/>
      <point x="236" y="561"/>
      <point x="259" y="561" type="curve" smooth="yes"/>
      <point x="299" y="561" type="line"/>
      <point x="301" y="571" type="line"/>
      <point x="64" y="571" type="line"/>
      <point x="62" y="561" type="line"/>
      <point x="73" y="561" type="line" smooth="yes"/>
      <point x="105" y="561"/>
      <point x="113" y="550"/>
      <point x="122" y="519" type="curve" smooth="yes"/>
      <point x="209" y="222" type="line"/>
      <point x="174" y="62" type="line" smooth="yes"/>
      <point x="164" y="17"/>
      <point x="132" y="10"/>
      <point x="96" y="10" type="curve" smooth="yes"/>
      <point x="76" y="10" type="line"/>
    </contour>
  </outline>
</glyph>
<glyph name="z.sc" format="2">
  <advance width="520"/>
  <anchor x="183" y="0" name="bottom"/>
  <anchor x="305" y="571" name="top"/>
  <anchor x="542" y="571" name="topright"/>
  <outline>
    <contour>
      <point x="-22" y="0" type="line"/>
      <point x="424" y="0" type="line"/>
      <point x="460" y="150" type="line"/>
      <point x="450" y="150" type="line"/>
      <point x="431" y="84" type="line" smooth="yes"/>
      <point x="418" y="38"/>
      <point x="390" y="10"/>
      <point x="340" y="10" type="curve" smooth="yes"/>
      <point x="99" y="10" type="line"/>
      <point x="526" y="568" type="line"/>
      <point x="526" y="571" type="line"/>
      <point x="111" y="571" type="line"/>
      <point x="74" y="421" type="line"/>
      <point x="84" y="421" type="line"/>
      <point x="103" y="493" type="line" smooth="yes"/>
      <point x="114" y="535"/>
      <point x="140" y="561"/>
      <point x="189" y="561" type="curve" smooth="yes"/>
      <point x="402" y="561" type="line"/>
      <point x="-21" y="5" type="line"/>
    </contour>
  </outline>
</glyph>
